<?xml version="1.0" encoding="utf-8" standalone="no"?>
<!DOCTYPE svg PUBLIC "-//W3C//DTD SVG 1.1//EN"
  "http://www.w3.org/Graphics/SVG/1.1/DTD/svg11.dtd">
<svg xmlns:xlink="http://www.w3.org/1999/xlink" width="578.509855pt" height="421.92pt" viewBox="0 0 578.509855 421.92" xmlns="http://www.w3.org/2000/svg" version="1.1">
 <metadata>
  <rdf:RDF xmlns:dc="http://purl.org/dc/elements/1.1/" xmlns:cc="http://creativecommons.org/ns#" xmlns:rdf="http://www.w3.org/1999/02/22-rdf-syntax-ns#">
   <cc:Work>
    <dc:type rdf:resource="http://purl.org/dc/dcmitype/StillImage"/>
    <dc:date>2026-01-23T15:02:22.463804</dc:date>
    <dc:format>image/svg+xml</dc:format>
    <dc:creator>
     <cc:Agent>
      <dc:title>Matplotlib v3.10.8, https://matplotlib.org/</dc:title>
     </cc:Agent>
    </dc:creator>
   </cc:Work>
  </rdf:RDF>
 </metadata>
 <defs>
  <style type="text/css">*{stroke-linejoin: round; stroke-linecap: butt}</style>
 </defs>
 <g id="figure_1">
  <g id="patch_1">
   <path d="M 0 421.92 
L 578.509855 421.92 
L 578.509855 0 
L 0 0 
z
" style="fill: #ffffff"/>
  </g>
  <g id="axes_1">
   <g id="patch_2">
    <path d="M 461.175341 193.759568 
L 470.165114 181.173886 
L 479.154886 193.759568 
L 461.175341 193.759568 
z
" clip-path="url(#p2ea6ac00ea)" style="fill: none; stroke: #000000; stroke-width: 2; stroke-linecap: round"/>
   </g>
   <g id="patch_3">
    <path d="M 461.175341 355.575477 
L 470.165114 342.989795 
L 479.154886 355.575477 
L 461.175341 355.575477 
z
" clip-path="url(#p2ea6ac00ea)" style="fill: none; stroke: #000000; stroke-width: 2; stroke-linecap: round"/>
   </g>
   <g id="line2d_1">
    <path d="M 38.656023 268.374682 
L 65.625341 268.374682 
L 68.621932 259.384909 
L 74.615114 277.364455 
L 80.608295 259.384909 
L 86.601477 277.364455 
L 92.594659 259.384909 
L 98.587841 277.364455 
L 101.584432 268.374682 
L 128.55375 268.374682 
" clip-path="url(#p2ea6ac00ea)" style="fill: none; stroke: #000000; stroke-width: 2; stroke-linecap: round"/>
   </g>
   <g id="line2d_2">
    <path d="M 128.55375 268.374682 
L 170.266295 268.374682 
M 170.266295 259.384909 
L 170.266295 277.364455 
M 176.738932 259.384909 
L 176.738932 277.364455 
M 176.738932 268.374682 
L 218.451477 268.374682 
" clip-path="url(#p2ea6ac00ea)" style="fill: none; stroke: #000000; stroke-width: 2; stroke-linecap: round"/>
   </g>
   <g id="line2d_3">
    <path d="M 218.451477 268.374682 
L 245.420795 268.374682 
L 248.417386 259.384909 
L 254.410568 277.364455 
L 260.40375 259.384909 
L 266.396932 277.364455 
L 272.390114 259.384909 
L 278.383295 277.364455 
L 281.379886 268.374682 
L 308.349205 268.374682 
" clip-path="url(#p2ea6ac00ea)" style="fill: none; stroke: #000000; stroke-width: 2; stroke-linecap: round"/>
   </g>
   <g id="line2d_4">
    <path d="M 308.349205 268.374682 
L 308.349205 295.344 
L 317.338977 298.340591 
L 299.359432 304.333773 
L 317.338977 310.326955 
L 299.359432 316.320136 
L 317.338977 322.313318 
L 299.359432 328.3065 
L 308.349205 331.303091 
L 308.349205 358.272409 
" clip-path="url(#p2ea6ac00ea)" style="fill: none; stroke: #000000; stroke-width: 2; stroke-linecap: round"/>
   </g>
   <g id="line2d_5">
    <path d="M 308.349205 358.272409 
L 290.369659 358.272409 
L 272.390114 358.272409 
" clip-path="url(#p2ea6ac00ea)" style="fill: none; stroke: #000000; stroke-width: 2; stroke-linecap: round"/>
   </g>
   <g id="line2d_6">
    <path d="M 272.390114 358.272409 
L 272.390114 372.656045 
L 263.400341 372.656045 
L 281.379886 372.656045 
M 266.097273 376.971136 
L 278.682955 376.971136 
M 270.592159 381.286227 
L 274.188068 381.286227 
" clip-path="url(#p2ea6ac00ea)" style="fill: none; stroke: #000000; stroke-width: 2; stroke-linecap: round"/>
   </g>
   <g id="line2d_7">
    <path d="M 308.349205 358.272409 
L 326.32875 358.272409 
L 344.308295 358.272409 
" clip-path="url(#p2ea6ac00ea)" style="fill: none; stroke: #000000; stroke-width: 2; stroke-linecap: round"/>
   </g>
   <g id="line2d_8">
    <path d="M 308.349205 268.374682 
L 308.349205 241.405364 
L 308.349205 214.436045 
" clip-path="url(#p2ea6ac00ea)" style="fill: none; stroke: #000000; stroke-width: 2; stroke-linecap: round"/>
   </g>
   <g id="line2d_9">
    <path d="M 308.349205 214.436045 
L 308.349205 187.466727 
L 299.359432 184.470136 
L 317.338977 178.476955 
L 299.359432 172.483773 
L 317.338977 166.490591 
L 299.359432 160.497409 
L 317.338977 154.504227 
L 308.349205 151.507636 
L 308.349205 124.538318 
" clip-path="url(#p2ea6ac00ea)" style="fill: none; stroke: #000000; stroke-width: 2; stroke-linecap: round"/>
   </g>
   <g id="line2d_10">
    <path d="M 308.349205 124.538318 
L 236.431023 124.538318 
L 164.512841 124.538318 
" clip-path="url(#p2ea6ac00ea)" style="fill: none; stroke: #000000; stroke-width: 2; stroke-linecap: round"/>
   </g>
   <g id="line2d_11">
    <path d="M 164.512841 124.538318 
L 164.512841 97.569 
L 155.523068 94.572409 
L 173.502614 88.579227 
L 155.523068 82.586045 
L 173.502614 76.592864 
L 155.523068 70.599682 
L 173.502614 64.6065 
L 164.512841 61.609909 
L 164.512841 34.640591 
" clip-path="url(#p2ea6ac00ea)" style="fill: none; stroke: #000000; stroke-width: 2; stroke-linecap: round"/>
   </g>
   <g id="line2d_12">
    <path d="M 164.512841 34.640591 
L 164.512841 20.256955 
" clip-path="url(#p2ea6ac00ea)" style="fill: none; stroke: #000000; stroke-width: 2; stroke-linecap: round"/>
   </g>
   <g id="line2d_13">
    <path d="M 164.512841 20.256955 
L 157.770511 20.256955 
" clip-path="url(#p2ea6ac00ea)" style="fill: none; stroke: #000000; stroke-width: 2; stroke-linecap: round"/>
   </g>
   <g id="line2d_14">
    <path d="M 164.512841 20.256955 
L 171.25517 20.256955 
" clip-path="url(#p2ea6ac00ea)" style="fill: none; stroke: #000000; stroke-width: 2; stroke-linecap: round"/>
   </g>
   <g id="line2d_15">
    <path d="M 164.512841 124.538318 
L 164.512841 151.507636 
L 173.502614 154.504227 
L 155.523068 160.497409 
L 173.502614 166.490591 
L 155.523068 172.483773 
L 173.502614 178.476955 
L 155.523068 184.470136 
L 164.512841 187.466727 
L 164.512841 214.436045 
" clip-path="url(#p2ea6ac00ea)" style="fill: none; stroke: #000000; stroke-width: 2; stroke-linecap: round"/>
   </g>
   <g id="line2d_16">
    <path d="M 164.512841 214.436045 
L 164.512841 228.819682 
L 155.523068 228.819682 
L 173.502614 228.819682 
M 158.22 233.134773 
L 170.805682 233.134773 
M 162.714886 237.449864 
L 166.310795 237.449864 
" clip-path="url(#p2ea6ac00ea)" style="fill: none; stroke: #000000; stroke-width: 2; stroke-linecap: round"/>
   </g>
   <g id="line2d_17">
    <path d="M 164.512841 124.538318 
L 119.563977 124.538318 
L 74.615114 124.538318 
" clip-path="url(#p2ea6ac00ea)" style="fill: none; stroke: #000000; stroke-width: 2; stroke-linecap: round"/>
   </g>
   <g id="line2d_18">
    <path d="M 74.615114 124.538318 
L 74.615114 166.250864 
M 83.604886 166.250864 
L 65.625341 166.250864 
M 83.604886 172.7235 
L 65.625341 172.7235 
M 74.615114 172.7235 
L 74.615114 214.436045 
" clip-path="url(#p2ea6ac00ea)" style="fill: none; stroke: #000000; stroke-width: 2; stroke-linecap: round"/>
   </g>
   <g id="line2d_19">
    <path d="M 74.615114 214.436045 
L 74.615114 228.819682 
L 65.625341 228.819682 
L 83.604886 228.819682 
M 68.322273 233.134773 
L 80.907955 233.134773 
M 72.817159 237.449864 
L 76.413068 237.449864 
" clip-path="url(#p2ea6ac00ea)" style="fill: none; stroke: #000000; stroke-width: 2; stroke-linecap: round"/>
   </g>
   <g id="line2d_20">
    <path d="M 308.349205 268.374682 
L 344.308295 268.374682 
L 380.267386 268.374682 
" clip-path="url(#p2ea6ac00ea)" style="fill: none; stroke: #000000; stroke-width: 2; stroke-linecap: round"/>
   </g>
   <g id="line2d_21">
    <path d="M 380.267386 268.374682 
L 407.236705 268.374682 
L 410.233295 259.384909 
L 416.226477 277.364455 
L 422.219659 259.384909 
L 428.212841 277.364455 
L 434.206023 259.384909 
L 440.199205 277.364455 
L 443.195795 268.374682 
L 470.165114 268.374682 
" clip-path="url(#p2ea6ac00ea)" style="fill: none; stroke: #000000; stroke-width: 2; stroke-linecap: round"/>
   </g>
   <g id="line2d_22">
    <path d="M 470.165114 268.374682 
L 470.165114 250.395136 
L 470.165114 232.415591 
" clip-path="url(#p2ea6ac00ea)" style="fill: none; stroke: #000000; stroke-width: 2; stroke-linecap: round"/>
   </g>
   <g id="line2d_23">
    <path d="M 470.165114 232.415591 
L 470.165114 193.759568 
M 461.175341 181.173886 
L 479.154886 181.173886 
M 470.165114 181.173886 
L 470.165114 142.517864 
" clip-path="url(#p2ea6ac00ea)" style="fill: none; stroke: #000000; stroke-width: 2; stroke-linecap: round"/>
   </g>
   <g id="line2d_24">
    <path d="M 470.165114 142.517864 
L 470.165114 128.134227 
" clip-path="url(#p2ea6ac00ea)" style="fill: none; stroke: #000000; stroke-width: 2; stroke-linecap: round"/>
   </g>
   <g id="line2d_25">
    <path d="M 470.165114 128.134227 
L 463.422784 128.134227 
" clip-path="url(#p2ea6ac00ea)" style="fill: none; stroke: #000000; stroke-width: 2; stroke-linecap: round"/>
   </g>
   <g id="line2d_26">
    <path d="M 470.165114 128.134227 
L 476.907443 128.134227 
" clip-path="url(#p2ea6ac00ea)" style="fill: none; stroke: #000000; stroke-width: 2; stroke-linecap: round"/>
   </g>
   <g id="line2d_27">
    <path d="M 470.165114 268.374682 
L 470.165114 286.354227 
L 470.165114 304.333773 
" clip-path="url(#p2ea6ac00ea)" style="fill: none; stroke: #000000; stroke-width: 2; stroke-linecap: round"/>
   </g>
   <g id="line2d_28">
    <path d="M 470.165114 304.333773 
L 470.165114 342.989795 
M 461.175341 342.989795 
L 479.154886 342.989795 
M 470.165114 355.575477 
L 470.165114 394.2315 
" clip-path="url(#p2ea6ac00ea)" style="fill: none; stroke: #000000; stroke-width: 2; stroke-linecap: round"/>
   </g>
   <g id="line2d_29">
    <path d="M 470.165114 394.2315 
L 470.165114 408.615136 
L 461.175341 408.615136 
L 479.154886 408.615136 
M 463.872273 412.930227 
L 476.457955 412.930227 
M 468.367159 417.245318 
L 471.963068 417.245318 
" clip-path="url(#p2ea6ac00ea)" style="fill: none; stroke: #000000; stroke-width: 2; stroke-linecap: round"/>
   </g>
   <g id="line2d_30">
    <path d="M 470.165114 268.374682 
L 497.134432 268.374682 
L 524.10375 268.374682 
" clip-path="url(#p2ea6ac00ea)" style="fill: none; stroke: #000000; stroke-width: 2; stroke-linecap: round"/>
   </g>
   <g id="text_1">
    <!-- Universal RP2040 Analog Interface -->
    <g transform="translate(258.006477 35.459682) scale(0.16 -0.16)">
     <defs>
      <path id="DejaVuSans-55" d="M 556 4666 
L 1191 4666 
L 1191 1831 
Q 1191 1081 1462 751 
Q 1734 422 2344 422 
Q 2950 422 3222 751 
Q 3494 1081 3494 1831 
L 3494 4666 
L 4128 4666 
L 4128 1753 
Q 4128 841 3676 375 
Q 3225 -91 2344 -91 
Q 1459 -91 1007 375 
Q 556 841 556 1753 
L 556 4666 
z
" transform="scale(0.015625)"/>
      <path id="DejaVuSans-6e" d="M 3513 2113 
L 3513 0 
L 2938 0 
L 2938 2094 
Q 2938 2591 2744 2837 
Q 2550 3084 2163 3084 
Q 1697 3084 1428 2787 
Q 1159 2491 1159 1978 
L 1159 0 
L 581 0 
L 581 3500 
L 1159 3500 
L 1159 2956 
Q 1366 3272 1645 3428 
Q 1925 3584 2291 3584 
Q 2894 3584 3203 3211 
Q 3513 2838 3513 2113 
z
" transform="scale(0.015625)"/>
      <path id="DejaVuSans-69" d="M 603 3500 
L 1178 3500 
L 1178 0 
L 603 0 
L 603 3500 
z
M 603 4863 
L 1178 4863 
L 1178 4134 
L 603 4134 
L 603 4863 
z
" transform="scale(0.015625)"/>
      <path id="DejaVuSans-76" d="M 191 3500 
L 800 3500 
L 1894 563 
L 2988 3500 
L 3597 3500 
L 2284 0 
L 1503 0 
L 191 3500 
z
" transform="scale(0.015625)"/>
      <path id="DejaVuSans-65" d="M 3597 1894 
L 3597 1613 
L 953 1613 
Q 991 1019 1311 708 
Q 1631 397 2203 397 
Q 2534 397 2845 478 
Q 3156 559 3463 722 
L 3463 178 
Q 3153 47 2828 -22 
Q 2503 -91 2169 -91 
Q 1331 -91 842 396 
Q 353 884 353 1716 
Q 353 2575 817 3079 
Q 1281 3584 2069 3584 
Q 2775 3584 3186 3129 
Q 3597 2675 3597 1894 
z
M 3022 2063 
Q 3016 2534 2758 2815 
Q 2500 3097 2075 3097 
Q 1594 3097 1305 2825 
Q 1016 2553 972 2059 
L 3022 2063 
z
" transform="scale(0.015625)"/>
      <path id="DejaVuSans-72" d="M 2631 2963 
Q 2534 3019 2420 3045 
Q 2306 3072 2169 3072 
Q 1681 3072 1420 2755 
Q 1159 2438 1159 1844 
L 1159 0 
L 581 0 
L 581 3500 
L 1159 3500 
L 1159 2956 
Q 1341 3275 1631 3429 
Q 1922 3584 2338 3584 
Q 2397 3584 2469 3576 
Q 2541 3569 2628 3553 
L 2631 2963 
z
" transform="scale(0.015625)"/>
      <path id="DejaVuSans-73" d="M 2834 3397 
L 2834 2853 
Q 2591 2978 2328 3040 
Q 2066 3103 1784 3103 
Q 1356 3103 1142 2972 
Q 928 2841 928 2578 
Q 928 2378 1081 2264 
Q 1234 2150 1697 2047 
L 1894 2003 
Q 2506 1872 2764 1633 
Q 3022 1394 3022 966 
Q 3022 478 2636 193 
Q 2250 -91 1575 -91 
Q 1294 -91 989 -36 
Q 684 19 347 128 
L 347 722 
Q 666 556 975 473 
Q 1284 391 1588 391 
Q 1994 391 2212 530 
Q 2431 669 2431 922 
Q 2431 1156 2273 1281 
Q 2116 1406 1581 1522 
L 1381 1569 
Q 847 1681 609 1914 
Q 372 2147 372 2553 
Q 372 3047 722 3315 
Q 1072 3584 1716 3584 
Q 2034 3584 2315 3537 
Q 2597 3491 2834 3397 
z
" transform="scale(0.015625)"/>
      <path id="DejaVuSans-61" d="M 2194 1759 
Q 1497 1759 1228 1600 
Q 959 1441 959 1056 
Q 959 750 1161 570 
Q 1363 391 1709 391 
Q 2188 391 2477 730 
Q 2766 1069 2766 1631 
L 2766 1759 
L 2194 1759 
z
M 3341 1997 
L 3341 0 
L 2766 0 
L 2766 531 
Q 2569 213 2275 61 
Q 1981 -91 1556 -91 
Q 1019 -91 701 211 
Q 384 513 384 1019 
Q 384 1609 779 1909 
Q 1175 2209 1959 2209 
L 2766 2209 
L 2766 2266 
Q 2766 2663 2505 2880 
Q 2244 3097 1772 3097 
Q 1472 3097 1187 3025 
Q 903 2953 641 2809 
L 641 3341 
Q 956 3463 1253 3523 
Q 1550 3584 1831 3584 
Q 2591 3584 2966 3190 
Q 3341 2797 3341 1997 
z
" transform="scale(0.015625)"/>
      <path id="DejaVuSans-6c" d="M 603 4863 
L 1178 4863 
L 1178 0 
L 603 0 
L 603 4863 
z
" transform="scale(0.015625)"/>
      <path id="DejaVuSans-20" transform="scale(0.015625)"/>
      <path id="DejaVuSans-52" d="M 2841 2188 
Q 3044 2119 3236 1894 
Q 3428 1669 3622 1275 
L 4263 0 
L 3584 0 
L 2988 1197 
Q 2756 1666 2539 1819 
Q 2322 1972 1947 1972 
L 1259 1972 
L 1259 0 
L 628 0 
L 628 4666 
L 2053 4666 
Q 2853 4666 3247 4331 
Q 3641 3997 3641 3322 
Q 3641 2881 3436 2590 
Q 3231 2300 2841 2188 
z
M 1259 4147 
L 1259 2491 
L 2053 2491 
Q 2509 2491 2742 2702 
Q 2975 2913 2975 3322 
Q 2975 3731 2742 3939 
Q 2509 4147 2053 4147 
L 1259 4147 
z
" transform="scale(0.015625)"/>
      <path id="DejaVuSans-50" d="M 1259 4147 
L 1259 2394 
L 2053 2394 
Q 2494 2394 2734 2622 
Q 2975 2850 2975 3272 
Q 2975 3691 2734 3919 
Q 2494 4147 2053 4147 
L 1259 4147 
z
M 628 4666 
L 2053 4666 
Q 2838 4666 3239 4311 
Q 3641 3956 3641 3272 
Q 3641 2581 3239 2228 
Q 2838 1875 2053 1875 
L 1259 1875 
L 1259 0 
L 628 0 
L 628 4666 
z
" transform="scale(0.015625)"/>
      <path id="DejaVuSans-32" d="M 1228 531 
L 3431 531 
L 3431 0 
L 469 0 
L 469 531 
Q 828 903 1448 1529 
Q 2069 2156 2228 2338 
Q 2531 2678 2651 2914 
Q 2772 3150 2772 3378 
Q 2772 3750 2511 3984 
Q 2250 4219 1831 4219 
Q 1534 4219 1204 4116 
Q 875 4013 500 3803 
L 500 4441 
Q 881 4594 1212 4672 
Q 1544 4750 1819 4750 
Q 2544 4750 2975 4387 
Q 3406 4025 3406 3419 
Q 3406 3131 3298 2873 
Q 3191 2616 2906 2266 
Q 2828 2175 2409 1742 
Q 1991 1309 1228 531 
z
" transform="scale(0.015625)"/>
      <path id="DejaVuSans-30" d="M 2034 4250 
Q 1547 4250 1301 3770 
Q 1056 3291 1056 2328 
Q 1056 1369 1301 889 
Q 1547 409 2034 409 
Q 2525 409 2770 889 
Q 3016 1369 3016 2328 
Q 3016 3291 2770 3770 
Q 2525 4250 2034 4250 
z
M 2034 4750 
Q 2819 4750 3233 4129 
Q 3647 3509 3647 2328 
Q 3647 1150 3233 529 
Q 2819 -91 2034 -91 
Q 1250 -91 836 529 
Q 422 1150 422 2328 
Q 422 3509 836 4129 
Q 1250 4750 2034 4750 
z
" transform="scale(0.015625)"/>
      <path id="DejaVuSans-34" d="M 2419 4116 
L 825 1625 
L 2419 1625 
L 2419 4116 
z
M 2253 4666 
L 3047 4666 
L 3047 1625 
L 3713 1625 
L 3713 1100 
L 3047 1100 
L 3047 0 
L 2419 0 
L 2419 1100 
L 313 1100 
L 313 1709 
L 2253 4666 
z
" transform="scale(0.015625)"/>
      <path id="DejaVuSans-41" d="M 2188 4044 
L 1331 1722 
L 3047 1722 
L 2188 4044 
z
M 1831 4666 
L 2547 4666 
L 4325 0 
L 3669 0 
L 3244 1197 
L 1141 1197 
L 716 0 
L 50 0 
L 1831 4666 
z
" transform="scale(0.015625)"/>
      <path id="DejaVuSans-6f" d="M 1959 3097 
Q 1497 3097 1228 2736 
Q 959 2375 959 1747 
Q 959 1119 1226 758 
Q 1494 397 1959 397 
Q 2419 397 2687 759 
Q 2956 1122 2956 1747 
Q 2956 2369 2687 2733 
Q 2419 3097 1959 3097 
z
M 1959 3584 
Q 2709 3584 3137 3096 
Q 3566 2609 3566 1747 
Q 3566 888 3137 398 
Q 2709 -91 1959 -91 
Q 1206 -91 779 398 
Q 353 888 353 1747 
Q 353 2609 779 3096 
Q 1206 3584 1959 3584 
z
" transform="scale(0.015625)"/>
      <path id="DejaVuSans-67" d="M 2906 1791 
Q 2906 2416 2648 2759 
Q 2391 3103 1925 3103 
Q 1463 3103 1205 2759 
Q 947 2416 947 1791 
Q 947 1169 1205 825 
Q 1463 481 1925 481 
Q 2391 481 2648 825 
Q 2906 1169 2906 1791 
z
M 3481 434 
Q 3481 -459 3084 -895 
Q 2688 -1331 1869 -1331 
Q 1566 -1331 1297 -1286 
Q 1028 -1241 775 -1147 
L 775 -588 
Q 1028 -725 1275 -790 
Q 1522 -856 1778 -856 
Q 2344 -856 2625 -561 
Q 2906 -266 2906 331 
L 2906 616 
Q 2728 306 2450 153 
Q 2172 0 1784 0 
Q 1141 0 747 490 
Q 353 981 353 1791 
Q 353 2603 747 3093 
Q 1141 3584 1784 3584 
Q 2172 3584 2450 3431 
Q 2728 3278 2906 2969 
L 2906 3500 
L 3481 3500 
L 3481 434 
z
" transform="scale(0.015625)"/>
      <path id="DejaVuSans-49" d="M 628 4666 
L 1259 4666 
L 1259 0 
L 628 0 
L 628 4666 
z
" transform="scale(0.015625)"/>
      <path id="DejaVuSans-74" d="M 1172 4494 
L 1172 3500 
L 2356 3500 
L 2356 3053 
L 1172 3053 
L 1172 1153 
Q 1172 725 1289 603 
Q 1406 481 1766 481 
L 2356 481 
L 2356 0 
L 1766 0 
Q 1100 0 847 248 
Q 594 497 594 1153 
L 594 3053 
L 172 3053 
L 172 3500 
L 594 3500 
L 594 4494 
L 1172 4494 
z
" transform="scale(0.015625)"/>
      <path id="DejaVuSans-66" d="M 2375 4863 
L 2375 4384 
L 1825 4384 
Q 1516 4384 1395 4259 
Q 1275 4134 1275 3809 
L 1275 3500 
L 2222 3500 
L 2222 3053 
L 1275 3053 
L 1275 0 
L 697 0 
L 697 3053 
L 147 3053 
L 147 3500 
L 697 3500 
L 697 3744 
Q 697 4328 969 4595 
Q 1241 4863 1831 4863 
L 2375 4863 
z
" transform="scale(0.015625)"/>
      <path id="DejaVuSans-63" d="M 3122 3366 
L 3122 2828 
Q 2878 2963 2633 3030 
Q 2388 3097 2138 3097 
Q 1578 3097 1268 2742 
Q 959 2388 959 1747 
Q 959 1106 1268 751 
Q 1578 397 2138 397 
Q 2388 397 2633 464 
Q 2878 531 3122 666 
L 3122 134 
Q 2881 22 2623 -34 
Q 2366 -91 2075 -91 
Q 1284 -91 818 406 
Q 353 903 353 1747 
Q 353 2603 823 3093 
Q 1294 3584 2113 3584 
Q 2378 3584 2631 3529 
Q 2884 3475 3122 3366 
z
" transform="scale(0.015625)"/>
     </defs>
     <use xlink:href="#DejaVuSans-55"/>
     <use xlink:href="#DejaVuSans-6e" transform="translate(73.193359 0)"/>
     <use xlink:href="#DejaVuSans-69" transform="translate(136.572266 0)"/>
     <use xlink:href="#DejaVuSans-76" transform="translate(164.355469 0)"/>
     <use xlink:href="#DejaVuSans-65" transform="translate(223.535156 0)"/>
     <use xlink:href="#DejaVuSans-72" transform="translate(285.058594 0)"/>
     <use xlink:href="#DejaVuSans-73" transform="translate(326.171875 0)"/>
     <use xlink:href="#DejaVuSans-61" transform="translate(378.271484 0)"/>
     <use xlink:href="#DejaVuSans-6c" transform="translate(439.550781 0)"/>
     <use xlink:href="#DejaVuSans-20" transform="translate(467.333984 0)"/>
     <use xlink:href="#DejaVuSans-52" transform="translate(499.121094 0)"/>
     <use xlink:href="#DejaVuSans-50" transform="translate(568.603516 0)"/>
     <use xlink:href="#DejaVuSans-32" transform="translate(628.90625 0)"/>
     <use xlink:href="#DejaVuSans-30" transform="translate(692.529297 0)"/>
     <use xlink:href="#DejaVuSans-34" transform="translate(756.152344 0)"/>
     <use xlink:href="#DejaVuSans-30" transform="translate(819.775391 0)"/>
     <use xlink:href="#DejaVuSans-20" transform="translate(883.398438 0)"/>
     <use xlink:href="#DejaVuSans-41" transform="translate(915.185547 0)"/>
     <use xlink:href="#DejaVuSans-6e" transform="translate(983.59375 0)"/>
     <use xlink:href="#DejaVuSans-61" transform="translate(1046.972656 0)"/>
     <use xlink:href="#DejaVuSans-6c" transform="translate(1108.251953 0)"/>
     <use xlink:href="#DejaVuSans-6f" transform="translate(1136.035156 0)"/>
     <use xlink:href="#DejaVuSans-67" transform="translate(1197.216797 0)"/>
     <use xlink:href="#DejaVuSans-20" transform="translate(1260.693359 0)"/>
     <use xlink:href="#DejaVuSans-49" transform="translate(1292.480469 0)"/>
     <use xlink:href="#DejaVuSans-6e" transform="translate(1321.972656 0)"/>
     <use xlink:href="#DejaVuSans-74" transform="translate(1385.351562 0)"/>
     <use xlink:href="#DejaVuSans-65" transform="translate(1424.560547 0)"/>
     <use xlink:href="#DejaVuSans-72" transform="translate(1486.083984 0)"/>
     <use xlink:href="#DejaVuSans-66" transform="translate(1527.197266 0)"/>
     <use xlink:href="#DejaVuSans-61" transform="translate(1562.402344 0)"/>
     <use xlink:href="#DejaVuSans-63" transform="translate(1623.681641 0)"/>
     <use xlink:href="#DejaVuSans-65" transform="translate(1678.662109 0)"/>
    </g>
   </g>
   <g id="text_2">
    <!-- $R_{prot}$ -->
    <g transform="translate(70.644886 289.720364) scale(0.12 -0.12)">
     <defs>
      <path id="DejaVuSans-Oblique-52" d="M 1613 4147 
L 1294 2491 
L 2106 2491 
Q 2584 2491 2879 2755 
Q 3175 3019 3175 3444 
Q 3175 3784 2976 3965 
Q 2778 4147 2406 4147 
L 1613 4147 
z
M 2772 2241 
Q 2972 2194 3105 2009 
Q 3238 1825 3413 1275 
L 3809 0 
L 3144 0 
L 2778 1197 
Q 2638 1659 2453 1815 
Q 2269 1972 1888 1972 
L 1191 1972 
L 806 0 
L 172 0 
L 1081 4666 
L 2503 4666 
Q 3150 4666 3495 4373 
Q 3841 4081 3841 3531 
Q 3841 3044 3547 2687 
Q 3253 2331 2772 2241 
z
" transform="scale(0.015625)"/>
      <path id="DejaVuSans-Oblique-70" d="M 3175 2156 
Q 3175 2616 2975 2859 
Q 2775 3103 2400 3103 
Q 2144 3103 1911 2972 
Q 1678 2841 1497 2591 
Q 1319 2344 1212 1994 
Q 1106 1644 1106 1300 
Q 1106 863 1306 627 
Q 1506 391 1875 391 
Q 2147 391 2380 519 
Q 2613 647 2778 891 
Q 2956 1147 3065 1494 
Q 3175 1841 3175 2156 
z
M 1394 2969 
Q 1625 3272 1939 3428 
Q 2253 3584 2638 3584 
Q 3175 3584 3472 3232 
Q 3769 2881 3769 2247 
Q 3769 1728 3584 1258 
Q 3400 788 3053 416 
Q 2822 169 2531 39 
Q 2241 -91 1919 -91 
Q 1547 -91 1294 64 
Q 1041 219 916 525 
L 556 -1331 
L -19 -1331 
L 922 3500 
L 1497 3500 
L 1394 2969 
z
" transform="scale(0.015625)"/>
      <path id="DejaVuSans-Oblique-72" d="M 2853 2969 
Q 2766 3016 2653 3041 
Q 2541 3066 2413 3066 
Q 1953 3066 1609 2717 
Q 1266 2369 1153 1784 
L 800 0 
L 225 0 
L 909 3500 
L 1484 3500 
L 1375 2956 
Q 1603 3259 1920 3421 
Q 2238 3584 2597 3584 
Q 2691 3584 2781 3573 
Q 2872 3563 2963 3538 
L 2853 2969 
z
" transform="scale(0.015625)"/>
      <path id="DejaVuSans-Oblique-6f" d="M 1625 -91 
Q 1009 -91 651 289 
Q 294 669 294 1325 
Q 294 1706 417 2101 
Q 541 2497 738 2766 
Q 1047 3184 1428 3384 
Q 1809 3584 2291 3584 
Q 2888 3584 3255 3212 
Q 3622 2841 3622 2241 
Q 3622 1825 3500 1412 
Q 3378 1000 3181 728 
Q 2875 309 2494 109 
Q 2113 -91 1625 -91 
z
M 891 1344 
Q 891 869 1089 633 
Q 1288 397 1691 397 
Q 2269 397 2648 901 
Q 3028 1406 3028 2181 
Q 3028 2634 2825 2865 
Q 2622 3097 2228 3097 
Q 1903 3097 1650 2945 
Q 1397 2794 1197 2484 
Q 1050 2253 970 1956 
Q 891 1659 891 1344 
z
" transform="scale(0.015625)"/>
      <path id="DejaVuSans-Oblique-74" d="M 2706 3500 
L 2619 3053 
L 1472 3053 
L 1100 1153 
Q 1081 1047 1072 975 
Q 1063 903 1063 863 
Q 1063 663 1183 572 
Q 1303 481 1569 481 
L 2150 481 
L 2053 0 
L 1503 0 
Q 991 0 739 200 
Q 488 400 488 806 
Q 488 878 497 964 
Q 506 1050 525 1153 
L 897 3053 
L 409 3053 
L 500 3500 
L 978 3500 
L 1172 4494 
L 1747 4494 
L 1556 3500 
L 2706 3500 
z
" transform="scale(0.015625)"/>
     </defs>
     <use xlink:href="#DejaVuSans-Oblique-52" transform="translate(0 0.09375)"/>
     <use xlink:href="#DejaVuSans-Oblique-70" transform="translate(69.482422 -16.3125) scale(0.7)"/>
     <use xlink:href="#DejaVuSans-Oblique-72" transform="translate(113.916016 -16.3125) scale(0.7)"/>
     <use xlink:href="#DejaVuSans-Oblique-6f" transform="translate(142.695312 -16.3125) scale(0.7)"/>
     <use xlink:href="#DejaVuSans-Oblique-74" transform="translate(185.522461 -16.3125) scale(0.7)"/>
    </g>
    <!-- 10k -->
    <g transform="translate(72.495511 302.558489) scale(0.12 -0.12)">
     <defs>
      <path id="DejaVuSans-31" d="M 794 531 
L 1825 531 
L 1825 4091 
L 703 3866 
L 703 4441 
L 1819 4666 
L 2450 4666 
L 2450 531 
L 3481 531 
L 3481 0 
L 794 0 
L 794 531 
z
" transform="scale(0.015625)"/>
      <path id="DejaVuSans-6b" d="M 581 4863 
L 1159 4863 
L 1159 1991 
L 2875 3500 
L 3609 3500 
L 1753 1863 
L 3688 0 
L 2938 0 
L 1159 1709 
L 1159 0 
L 581 0 
L 581 4863 
z
" transform="scale(0.015625)"/>
     </defs>
     <use xlink:href="#DejaVuSans-31"/>
     <use xlink:href="#DejaVuSans-30" transform="translate(63.623047 0)"/>
     <use xlink:href="#DejaVuSans-6b" transform="translate(127.246094 0)"/>
    </g>
   </g>
   <g id="text_3">
    <!-- $C_{ac}$ -->
    <g transform="translate(164.262614 290.078489) scale(0.12 -0.12)">
     <defs>
      <path id="DejaVuSans-Oblique-43" d="M 4447 4306 
L 4319 3641 
Q 4019 3944 3683 4091 
Q 3347 4238 2956 4238 
Q 2422 4238 2017 3981 
Q 1613 3725 1319 3200 
Q 1131 2863 1032 2486 
Q 934 2109 934 1728 
Q 934 1091 1264 756 
Q 1594 422 2222 422 
Q 2656 422 3056 561 
Q 3456 700 3834 978 
L 3688 231 
Q 3316 72 2936 -9 
Q 2556 -91 2175 -91 
Q 1278 -91 773 396 
Q 269 884 269 1753 
Q 269 2309 461 2846 
Q 653 3384 1013 3828 
Q 1394 4300 1883 4525 
Q 2372 4750 3022 4750 
Q 3422 4750 3780 4639 
Q 4138 4528 4447 4306 
z
" transform="scale(0.015625)"/>
      <path id="DejaVuSans-Oblique-61" d="M 3438 1997 
L 3047 0 
L 2472 0 
L 2578 531 
Q 2325 219 2001 64 
Q 1678 -91 1281 -91 
Q 834 -91 548 182 
Q 263 456 263 884 
Q 263 1497 752 1853 
Q 1241 2209 2100 2209 
L 2900 2209 
L 2931 2363 
Q 2938 2388 2941 2417 
Q 2944 2447 2944 2509 
Q 2944 2788 2717 2942 
Q 2491 3097 2081 3097 
Q 1800 3097 1504 3025 
Q 1209 2953 897 2809 
L 997 3341 
Q 1322 3463 1633 3523 
Q 1944 3584 2234 3584 
Q 2853 3584 3176 3315 
Q 3500 3047 3500 2534 
Q 3500 2431 3484 2292 
Q 3469 2153 3438 1997 
z
M 2816 1759 
L 2241 1759 
Q 1534 1759 1195 1570 
Q 856 1381 856 984 
Q 856 709 1029 553 
Q 1203 397 1509 397 
Q 1978 397 2328 733 
Q 2678 1069 2791 1631 
L 2816 1759 
z
" transform="scale(0.015625)"/>
      <path id="DejaVuSans-Oblique-63" d="M 3431 3366 
L 3316 2797 
Q 3109 2947 2876 3022 
Q 2644 3097 2394 3097 
Q 2119 3097 1870 3000 
Q 1622 2903 1453 2725 
Q 1184 2453 1037 2087 
Q 891 1722 891 1331 
Q 891 859 1127 628 
Q 1363 397 1844 397 
Q 2081 397 2348 469 
Q 2616 541 2906 684 
L 2797 116 
Q 2547 13 2283 -39 
Q 2019 -91 1741 -91 
Q 1044 -91 669 257 
Q 294 606 294 1253 
Q 294 1797 489 2255 
Q 684 2713 1069 3078 
Q 1331 3328 1684 3456 
Q 2038 3584 2456 3584 
Q 2700 3584 2940 3529 
Q 3181 3475 3431 3366 
z
" transform="scale(0.015625)"/>
     </defs>
     <use xlink:href="#DejaVuSans-Oblique-43" transform="translate(0 0.78125)"/>
     <use xlink:href="#DejaVuSans-Oblique-61" transform="translate(69.824219 -15.625) scale(0.7)"/>
     <use xlink:href="#DejaVuSans-Oblique-63" transform="translate(112.719727 -15.625) scale(0.7)"/>
    </g>
    <!-- 220nF -->
    <g transform="translate(154.796676 301.692239) scale(0.12 -0.12)">
     <defs>
      <path id="DejaVuSans-46" d="M 628 4666 
L 3309 4666 
L 3309 4134 
L 1259 4134 
L 1259 2759 
L 3109 2759 
L 3109 2228 
L 1259 2228 
L 1259 0 
L 628 0 
L 628 4666 
z
" transform="scale(0.015625)"/>
     </defs>
     <use xlink:href="#DejaVuSans-32"/>
     <use xlink:href="#DejaVuSans-32" transform="translate(63.623047 0)"/>
     <use xlink:href="#DejaVuSans-30" transform="translate(127.246094 0)"/>
     <use xlink:href="#DejaVuSans-6e" transform="translate(190.869141 0)"/>
     <use xlink:href="#DejaVuSans-46" transform="translate(254.248047 0)"/>
    </g>
    <!-- (Socket) -->
    <g transform="translate(148.740426 313.305989) scale(0.12 -0.12)">
     <defs>
      <path id="DejaVuSans-28" d="M 1984 4856 
Q 1566 4138 1362 3434 
Q 1159 2731 1159 2009 
Q 1159 1288 1364 580 
Q 1569 -128 1984 -844 
L 1484 -844 
Q 1016 -109 783 600 
Q 550 1309 550 2009 
Q 550 2706 781 3412 
Q 1013 4119 1484 4856 
L 1984 4856 
z
" transform="scale(0.015625)"/>
      <path id="DejaVuSans-53" d="M 3425 4513 
L 3425 3897 
Q 3066 4069 2747 4153 
Q 2428 4238 2131 4238 
Q 1616 4238 1336 4038 
Q 1056 3838 1056 3469 
Q 1056 3159 1242 3001 
Q 1428 2844 1947 2747 
L 2328 2669 
Q 3034 2534 3370 2195 
Q 3706 1856 3706 1288 
Q 3706 609 3251 259 
Q 2797 -91 1919 -91 
Q 1588 -91 1214 -16 
Q 841 59 441 206 
L 441 856 
Q 825 641 1194 531 
Q 1563 422 1919 422 
Q 2459 422 2753 634 
Q 3047 847 3047 1241 
Q 3047 1584 2836 1778 
Q 2625 1972 2144 2069 
L 1759 2144 
Q 1053 2284 737 2584 
Q 422 2884 422 3419 
Q 422 4038 858 4394 
Q 1294 4750 2059 4750 
Q 2388 4750 2728 4690 
Q 3069 4631 3425 4513 
z
" transform="scale(0.015625)"/>
      <path id="DejaVuSans-29" d="M 513 4856 
L 1013 4856 
Q 1481 4119 1714 3412 
Q 1947 2706 1947 2009 
Q 1947 1309 1714 600 
Q 1481 -109 1013 -844 
L 513 -844 
Q 928 -128 1133 580 
Q 1338 1288 1338 2009 
Q 1338 2731 1133 3434 
Q 928 4138 513 4856 
z
" transform="scale(0.015625)"/>
     </defs>
     <use xlink:href="#DejaVuSans-28"/>
     <use xlink:href="#DejaVuSans-53" transform="translate(39.013672 0)"/>
     <use xlink:href="#DejaVuSans-6f" transform="translate(102.490234 0)"/>
     <use xlink:href="#DejaVuSans-63" transform="translate(163.671875 0)"/>
     <use xlink:href="#DejaVuSans-6b" transform="translate(218.652344 0)"/>
     <use xlink:href="#DejaVuSans-65" transform="translate(272.9375 0)"/>
     <use xlink:href="#DejaVuSans-74" transform="translate(334.460938 0)"/>
     <use xlink:href="#DejaVuSans-29" transform="translate(373.669922 0)"/>
    </g>
   </g>
   <g id="text_4">
    <!-- $R_{div1}$ -->
    <g transform="translate(250.020341 290.078489) scale(0.12 -0.12)">
     <defs>
      <path id="DejaVuSans-Oblique-64" d="M 2675 525 
Q 2444 222 2128 65 
Q 1813 -91 1428 -91 
Q 903 -91 598 267 
Q 294 625 294 1247 
Q 294 1766 478 2236 
Q 663 2706 1013 3078 
Q 1244 3325 1534 3454 
Q 1825 3584 2144 3584 
Q 2481 3584 2739 3421 
Q 2997 3259 3138 2956 
L 3513 4863 
L 4091 4863 
L 3144 0 
L 2566 0 
L 2675 525 
z
M 891 1350 
Q 891 897 1095 644 
Q 1300 391 1663 391 
Q 1931 391 2161 520 
Q 2391 650 2566 903 
Q 2750 1166 2856 1509 
Q 2963 1853 2963 2188 
Q 2963 2622 2758 2865 
Q 2553 3109 2194 3109 
Q 1922 3109 1687 2981 
Q 1453 2853 1288 2613 
Q 1106 2353 998 2009 
Q 891 1666 891 1350 
z
" transform="scale(0.015625)"/>
      <path id="DejaVuSans-Oblique-69" d="M 1172 4863 
L 1747 4863 
L 1606 4134 
L 1031 4134 
L 1172 4863 
z
M 909 3500 
L 1484 3500 
L 800 0 
L 225 0 
L 909 3500 
z
" transform="scale(0.015625)"/>
      <path id="DejaVuSans-Oblique-76" d="M 459 3500 
L 1069 3500 
L 1581 525 
L 3256 3500 
L 3866 3500 
L 1875 0 
L 1100 0 
L 459 3500 
z
" transform="scale(0.015625)"/>
     </defs>
     <use xlink:href="#DejaVuSans-Oblique-52" transform="translate(0 0.09375)"/>
     <use xlink:href="#DejaVuSans-Oblique-64" transform="translate(69.482422 -16.3125) scale(0.7)"/>
     <use xlink:href="#DejaVuSans-Oblique-69" transform="translate(113.916016 -16.3125) scale(0.7)"/>
     <use xlink:href="#DejaVuSans-Oblique-76" transform="translate(133.364258 -16.3125) scale(0.7)"/>
     <use xlink:href="#DejaVuSans-31" transform="translate(174.790039 -16.3125) scale(0.7)"/>
    </g>
    <!-- 10k -->
    <g transform="translate(252.290966 301.692239) scale(0.12 -0.12)">
     <use xlink:href="#DejaVuSans-31"/>
     <use xlink:href="#DejaVuSans-30" transform="translate(63.623047 0)"/>
     <use xlink:href="#DejaVuSans-6b" transform="translate(127.246094 0)"/>
    </g>
    <!-- (Socket) -->
    <g transform="translate(238.638153 313.305989) scale(0.12 -0.12)">
     <use xlink:href="#DejaVuSans-28"/>
     <use xlink:href="#DejaVuSans-53" transform="translate(39.013672 0)"/>
     <use xlink:href="#DejaVuSans-6f" transform="translate(102.490234 0)"/>
     <use xlink:href="#DejaVuSans-63" transform="translate(163.671875 0)"/>
     <use xlink:href="#DejaVuSans-6b" transform="translate(218.652344 0)"/>
     <use xlink:href="#DejaVuSans-65" transform="translate(272.9375 0)"/>
     <use xlink:href="#DejaVuSans-74" transform="translate(334.460938 0)"/>
     <use xlink:href="#DejaVuSans-29" transform="translate(373.669922 0)"/>
    </g>
   </g>
   <g id="text_5">
    <!-- $R_{div2}$ -->
    <g transform="translate(320.934886 305.021045) scale(0.12 -0.12)">
     <use xlink:href="#DejaVuSans-Oblique-52" transform="translate(0 0.09375)"/>
     <use xlink:href="#DejaVuSans-Oblique-64" transform="translate(69.482422 -16.3125) scale(0.7)"/>
     <use xlink:href="#DejaVuSans-Oblique-69" transform="translate(113.916016 -16.3125) scale(0.7)"/>
     <use xlink:href="#DejaVuSans-Oblique-76" transform="translate(133.364258 -16.3125) scale(0.7)"/>
     <use xlink:href="#DejaVuSans-32" transform="translate(174.790039 -16.3125) scale(0.7)"/>
    </g>
    <!-- 10k -->
    <g transform="translate(320.934886 316.634795) scale(0.12 -0.12)">
     <use xlink:href="#DejaVuSans-31"/>
     <use xlink:href="#DejaVuSans-30" transform="translate(63.623047 0)"/>
     <use xlink:href="#DejaVuSans-6b" transform="translate(127.246094 0)"/>
    </g>
    <!-- (Socket) -->
    <g transform="translate(320.934886 328.248545) scale(0.12 -0.12)">
     <use xlink:href="#DejaVuSans-28"/>
     <use xlink:href="#DejaVuSans-53" transform="translate(39.013672 0)"/>
     <use xlink:href="#DejaVuSans-6f" transform="translate(102.490234 0)"/>
     <use xlink:href="#DejaVuSans-63" transform="translate(163.671875 0)"/>
     <use xlink:href="#DejaVuSans-6b" transform="translate(218.652344 0)"/>
     <use xlink:href="#DejaVuSans-65" transform="translate(272.9375 0)"/>
     <use xlink:href="#DejaVuSans-74" transform="translate(334.460938 0)"/>
     <use xlink:href="#DejaVuSans-29" transform="translate(373.669922 0)"/>
    </g>
   </g>
   <g id="text_6">
    <!-- Pin 1: GND -->
    <g transform="translate(214.856705 359.788631) scale(0.1 -0.1)">
     <defs>
      <path id="DejaVuSans-3a" d="M 750 794 
L 1409 794 
L 1409 0 
L 750 0 
L 750 794 
z
M 750 3309 
L 1409 3309 
L 1409 2516 
L 750 2516 
L 750 3309 
z
" transform="scale(0.015625)"/>
      <path id="DejaVuSans-47" d="M 3809 666 
L 3809 1919 
L 2778 1919 
L 2778 2438 
L 4434 2438 
L 4434 434 
Q 4069 175 3628 42 
Q 3188 -91 2688 -91 
Q 1594 -91 976 548 
Q 359 1188 359 2328 
Q 359 3472 976 4111 
Q 1594 4750 2688 4750 
Q 3144 4750 3555 4637 
Q 3966 4525 4313 4306 
L 4313 3634 
Q 3963 3931 3569 4081 
Q 3175 4231 2741 4231 
Q 1884 4231 1454 3753 
Q 1025 3275 1025 2328 
Q 1025 1384 1454 906 
Q 1884 428 2741 428 
Q 3075 428 3337 486 
Q 3600 544 3809 666 
z
" transform="scale(0.015625)"/>
      <path id="DejaVuSans-4e" d="M 628 4666 
L 1478 4666 
L 3547 763 
L 3547 4666 
L 4159 4666 
L 4159 0 
L 3309 0 
L 1241 3903 
L 1241 0 
L 628 0 
L 628 4666 
z
" transform="scale(0.015625)"/>
      <path id="DejaVuSans-44" d="M 1259 4147 
L 1259 519 
L 2022 519 
Q 2988 519 3436 956 
Q 3884 1394 3884 2338 
Q 3884 3275 3436 3711 
Q 2988 4147 2022 4147 
L 1259 4147 
z
M 628 4666 
L 1925 4666 
Q 3281 4666 3915 4102 
Q 4550 3538 4550 2338 
Q 4550 1131 3912 565 
Q 3275 0 1925 0 
L 628 0 
L 628 4666 
z
" transform="scale(0.015625)"/>
     </defs>
     <use xlink:href="#DejaVuSans-50"/>
     <use xlink:href="#DejaVuSans-69" transform="translate(58.052734 0)"/>
     <use xlink:href="#DejaVuSans-6e" transform="translate(85.835938 0)"/>
     <use xlink:href="#DejaVuSans-20" transform="translate(149.214844 0)"/>
     <use xlink:href="#DejaVuSans-31" transform="translate(181.001953 0)"/>
     <use xlink:href="#DejaVuSans-3a" transform="translate(244.625 0)"/>
     <use xlink:href="#DejaVuSans-20" transform="translate(278.316406 0)"/>
     <use xlink:href="#DejaVuSans-47" transform="translate(310.103516 0)"/>
     <use xlink:href="#DejaVuSans-4e" transform="translate(387.59375 0)"/>
     <use xlink:href="#DejaVuSans-44" transform="translate(462.398438 0)"/>
    </g>
    <!-- (DC Mode) -->
    <g transform="translate(215.881705 369.466756) scale(0.1 -0.1)">
     <defs>
      <path id="DejaVuSans-43" d="M 4122 4306 
L 4122 3641 
Q 3803 3938 3442 4084 
Q 3081 4231 2675 4231 
Q 1875 4231 1450 3742 
Q 1025 3253 1025 2328 
Q 1025 1406 1450 917 
Q 1875 428 2675 428 
Q 3081 428 3442 575 
Q 3803 722 4122 1019 
L 4122 359 
Q 3791 134 3420 21 
Q 3050 -91 2638 -91 
Q 1578 -91 968 557 
Q 359 1206 359 2328 
Q 359 3453 968 4101 
Q 1578 4750 2638 4750 
Q 3056 4750 3426 4639 
Q 3797 4528 4122 4306 
z
" transform="scale(0.015625)"/>
      <path id="DejaVuSans-4d" d="M 628 4666 
L 1569 4666 
L 2759 1491 
L 3956 4666 
L 4897 4666 
L 4897 0 
L 4281 0 
L 4281 4097 
L 3078 897 
L 2444 897 
L 1241 4097 
L 1241 0 
L 628 0 
L 628 4666 
z
" transform="scale(0.015625)"/>
      <path id="DejaVuSans-64" d="M 2906 2969 
L 2906 4863 
L 3481 4863 
L 3481 0 
L 2906 0 
L 2906 525 
Q 2725 213 2448 61 
Q 2172 -91 1784 -91 
Q 1150 -91 751 415 
Q 353 922 353 1747 
Q 353 2572 751 3078 
Q 1150 3584 1784 3584 
Q 2172 3584 2448 3432 
Q 2725 3281 2906 2969 
z
M 947 1747 
Q 947 1113 1208 752 
Q 1469 391 1925 391 
Q 2381 391 2643 752 
Q 2906 1113 2906 1747 
Q 2906 2381 2643 2742 
Q 2381 3103 1925 3103 
Q 1469 3103 1208 2742 
Q 947 2381 947 1747 
z
" transform="scale(0.015625)"/>
     </defs>
     <use xlink:href="#DejaVuSans-28"/>
     <use xlink:href="#DejaVuSans-44" transform="translate(39.013672 0)"/>
     <use xlink:href="#DejaVuSans-43" transform="translate(116.015625 0)"/>
     <use xlink:href="#DejaVuSans-20" transform="translate(185.839844 0)"/>
     <use xlink:href="#DejaVuSans-4d" transform="translate(217.626953 0)"/>
     <use xlink:href="#DejaVuSans-6f" transform="translate(303.90625 0)"/>
     <use xlink:href="#DejaVuSans-64" transform="translate(365.087891 0)"/>
     <use xlink:href="#DejaVuSans-65" transform="translate(428.564453 0)"/>
     <use xlink:href="#DejaVuSans-29" transform="translate(490.087891 0)"/>
    </g>
   </g>
   <g id="text_7">
    <!-- $V_{mid}$ -->
    <g transform="translate(350.780932 357.98775) scale(0.12 -0.12)">
     <defs>
      <path id="DejaVuSans-Oblique-56" d="M 1319 0 
L 500 4666 
L 1119 4666 
L 1797 653 
L 4063 4666 
L 4750 4666 
L 2053 0 
L 1319 0 
z
" transform="scale(0.015625)"/>
      <path id="DejaVuSans-Oblique-6d" d="M 5747 2113 
L 5338 0 
L 4763 0 
L 5166 2094 
Q 5191 2228 5203 2325 
Q 5216 2422 5216 2491 
Q 5216 2772 5059 2928 
Q 4903 3084 4622 3084 
Q 4203 3084 3875 2770 
Q 3547 2456 3450 1953 
L 3066 0 
L 2491 0 
L 2900 2094 
Q 2925 2209 2937 2307 
Q 2950 2406 2950 2484 
Q 2950 2769 2794 2926 
Q 2638 3084 2363 3084 
Q 1938 3084 1609 2770 
Q 1281 2456 1184 1953 
L 800 0 
L 225 0 
L 909 3500 
L 1484 3500 
L 1375 2956 
Q 1609 3263 1923 3423 
Q 2238 3584 2597 3584 
Q 2978 3584 3223 3384 
Q 3469 3184 3519 2828 
Q 3781 3197 4126 3390 
Q 4472 3584 4856 3584 
Q 5306 3584 5551 3325 
Q 5797 3066 5797 2591 
Q 5797 2488 5784 2364 
Q 5772 2241 5747 2113 
z
" transform="scale(0.015625)"/>
     </defs>
     <use xlink:href="#DejaVuSans-Oblique-56" transform="translate(0 0.09375)"/>
     <use xlink:href="#DejaVuSans-Oblique-6d" transform="translate(68.408203 -16.3125) scale(0.7)"/>
     <use xlink:href="#DejaVuSans-Oblique-69" transform="translate(136.59668 -16.3125) scale(0.7)"/>
     <use xlink:href="#DejaVuSans-Oblique-64" transform="translate(156.044922 -16.3125) scale(0.7)"/>
    </g>
   </g>
   <g id="text_8">
    <!-- Pin 3: Bias -->
    <g transform="translate(321.912017 373.062665) scale(0.1 -0.1)">
     <defs>
      <path id="DejaVuSans-33" d="M 2597 2516 
Q 3050 2419 3304 2112 
Q 3559 1806 3559 1356 
Q 3559 666 3084 287 
Q 2609 -91 1734 -91 
Q 1441 -91 1130 -33 
Q 819 25 488 141 
L 488 750 
Q 750 597 1062 519 
Q 1375 441 1716 441 
Q 2309 441 2620 675 
Q 2931 909 2931 1356 
Q 2931 1769 2642 2001 
Q 2353 2234 1838 2234 
L 1294 2234 
L 1294 2753 
L 1863 2753 
Q 2328 2753 2575 2939 
Q 2822 3125 2822 3475 
Q 2822 3834 2567 4026 
Q 2313 4219 1838 4219 
Q 1578 4219 1281 4162 
Q 984 4106 628 3988 
L 628 4550 
Q 988 4650 1302 4700 
Q 1616 4750 1894 4750 
Q 2613 4750 3031 4423 
Q 3450 4097 3450 3541 
Q 3450 3153 3228 2886 
Q 3006 2619 2597 2516 
z
" transform="scale(0.015625)"/>
      <path id="DejaVuSans-42" d="M 1259 2228 
L 1259 519 
L 2272 519 
Q 2781 519 3026 730 
Q 3272 941 3272 1375 
Q 3272 1813 3026 2020 
Q 2781 2228 2272 2228 
L 1259 2228 
z
M 1259 4147 
L 1259 2741 
L 2194 2741 
Q 2656 2741 2882 2914 
Q 3109 3088 3109 3444 
Q 3109 3797 2882 3972 
Q 2656 4147 2194 4147 
L 1259 4147 
z
M 628 4666 
L 2241 4666 
Q 2963 4666 3353 4366 
Q 3744 4066 3744 3513 
Q 3744 3084 3544 2831 
Q 3344 2578 2956 2516 
Q 3422 2416 3680 2098 
Q 3938 1781 3938 1306 
Q 3938 681 3513 340 
Q 3088 0 2303 0 
L 628 0 
L 628 4666 
z
" transform="scale(0.015625)"/>
     </defs>
     <use xlink:href="#DejaVuSans-50"/>
     <use xlink:href="#DejaVuSans-69" transform="translate(58.052734 0)"/>
     <use xlink:href="#DejaVuSans-6e" transform="translate(85.835938 0)"/>
     <use xlink:href="#DejaVuSans-20" transform="translate(149.214844 0)"/>
     <use xlink:href="#DejaVuSans-33" transform="translate(181.001953 0)"/>
     <use xlink:href="#DejaVuSans-3a" transform="translate(244.625 0)"/>
     <use xlink:href="#DejaVuSans-20" transform="translate(278.316406 0)"/>
     <use xlink:href="#DejaVuSans-42" transform="translate(310.103516 0)"/>
     <use xlink:href="#DejaVuSans-69" transform="translate(378.707031 0)"/>
     <use xlink:href="#DejaVuSans-61" transform="translate(406.490234 0)"/>
     <use xlink:href="#DejaVuSans-73" transform="translate(467.769531 0)"/>
    </g>
    <!-- (Audio Mode) -->
    <g transform="translate(314.577642 382.74079) scale(0.1 -0.1)">
     <defs>
      <path id="DejaVuSans-75" d="M 544 1381 
L 544 3500 
L 1119 3500 
L 1119 1403 
Q 1119 906 1312 657 
Q 1506 409 1894 409 
Q 2359 409 2629 706 
Q 2900 1003 2900 1516 
L 2900 3500 
L 3475 3500 
L 3475 0 
L 2900 0 
L 2900 538 
Q 2691 219 2414 64 
Q 2138 -91 1772 -91 
Q 1169 -91 856 284 
Q 544 659 544 1381 
z
M 1991 3584 
L 1991 3584 
z
" transform="scale(0.015625)"/>
     </defs>
     <use xlink:href="#DejaVuSans-28"/>
     <use xlink:href="#DejaVuSans-41" transform="translate(39.013672 0)"/>
     <use xlink:href="#DejaVuSans-75" transform="translate(107.421875 0)"/>
     <use xlink:href="#DejaVuSans-64" transform="translate(170.800781 0)"/>
     <use xlink:href="#DejaVuSans-69" transform="translate(234.277344 0)"/>
     <use xlink:href="#DejaVuSans-6f" transform="translate(262.060547 0)"/>
     <use xlink:href="#DejaVuSans-20" transform="translate(323.242188 0)"/>
     <use xlink:href="#DejaVuSans-4d" transform="translate(355.029297 0)"/>
     <use xlink:href="#DejaVuSans-6f" transform="translate(441.308594 0)"/>
     <use xlink:href="#DejaVuSans-64" transform="translate(502.490234 0)"/>
     <use xlink:href="#DejaVuSans-65" transform="translate(565.966797 0)"/>
     <use xlink:href="#DejaVuSans-29" transform="translate(627.490234 0)"/>
    </g>
   </g>
   <g id="text_9">
    <!-- $R_{inject}$ -->
    <g transform="translate(263.963523 160.393432) scale(0.12 -0.12)">
     <defs>
      <path id="DejaVuSans-Oblique-6e" d="M 3566 2113 
L 3156 0 
L 2578 0 
L 2988 2091 
Q 3016 2238 3031 2350 
Q 3047 2463 3047 2528 
Q 3047 2791 2881 2937 
Q 2716 3084 2419 3084 
Q 1956 3084 1622 2776 
Q 1288 2469 1184 1941 
L 800 0 
L 225 0 
L 903 3500 
L 1478 3500 
L 1363 2950 
Q 1603 3253 1940 3418 
Q 2278 3584 2650 3584 
Q 3113 3584 3367 3334 
Q 3622 3084 3622 2631 
Q 3622 2519 3608 2391 
Q 3594 2263 3566 2113 
z
" transform="scale(0.015625)"/>
      <path id="DejaVuSans-Oblique-6a" d="M 928 3500 
L 1503 3500 
L 813 -63 
L 809 -78 
Q 694 -675 544 -897 
Q 403 -1106 132 -1218 
Q -138 -1331 -506 -1331 
L -722 -1331 
L -628 -844 
L -481 -844 
Q -144 -844 -1 -703 
Q 141 -563 238 -63 
L 928 3500 
z
M 1197 4863 
L 1772 4863 
L 1631 4134 
L 1056 4134 
L 1197 4863 
z
" transform="scale(0.015625)"/>
      <path id="DejaVuSans-Oblique-65" d="M 3078 2063 
Q 3088 2113 3092 2166 
Q 3097 2219 3097 2272 
Q 3097 2653 2873 2875 
Q 2650 3097 2266 3097 
Q 1838 3097 1509 2826 
Q 1181 2556 1013 2059 
L 3078 2063 
z
M 3578 1613 
L 903 1613 
Q 884 1494 878 1425 
Q 872 1356 872 1306 
Q 872 872 1139 634 
Q 1406 397 1894 397 
Q 2269 397 2603 481 
Q 2938 566 3225 728 
L 3116 159 
Q 2806 34 2476 -28 
Q 2147 -91 1806 -91 
Q 1078 -91 686 257 
Q 294 606 294 1247 
Q 294 1794 489 2264 
Q 684 2734 1063 3103 
Q 1306 3334 1642 3459 
Q 1978 3584 2356 3584 
Q 2950 3584 3301 3228 
Q 3653 2872 3653 2272 
Q 3653 2128 3634 1964 
Q 3616 1800 3578 1613 
z
" transform="scale(0.015625)"/>
     </defs>
     <use xlink:href="#DejaVuSans-Oblique-52" transform="translate(0 0.09375)"/>
     <use xlink:href="#DejaVuSans-Oblique-69" transform="translate(69.482422 -16.3125) scale(0.7)"/>
     <use xlink:href="#DejaVuSans-Oblique-6e" transform="translate(88.930664 -16.3125) scale(0.7)"/>
     <use xlink:href="#DejaVuSans-Oblique-6a" transform="translate(133.295898 -16.3125) scale(0.7)"/>
     <use xlink:href="#DejaVuSans-Oblique-65" transform="translate(152.744141 -16.3125) scale(0.7)"/>
     <use xlink:href="#DejaVuSans-Oblique-63" transform="translate(195.810547 -16.3125) scale(0.7)"/>
     <use xlink:href="#DejaVuSans-Oblique-74" transform="translate(234.296875 -16.3125) scale(0.7)"/>
    </g>
    <!-- 220k -->
    <g transform="translate(265.909773 173.231557) scale(0.12 -0.12)">
     <use xlink:href="#DejaVuSans-32"/>
     <use xlink:href="#DejaVuSans-32" transform="translate(63.623047 0)"/>
     <use xlink:href="#DejaVuSans-30" transform="translate(127.246094 0)"/>
     <use xlink:href="#DejaVuSans-6b" transform="translate(190.869141 0)"/>
    </g>
    <!-- (Socket) -->
    <g transform="translate(246.239148 184.845307) scale(0.12 -0.12)">
     <use xlink:href="#DejaVuSans-28"/>
     <use xlink:href="#DejaVuSans-53" transform="translate(39.013672 0)"/>
     <use xlink:href="#DejaVuSans-6f" transform="translate(102.490234 0)"/>
     <use xlink:href="#DejaVuSans-63" transform="translate(163.671875 0)"/>
     <use xlink:href="#DejaVuSans-6b" transform="translate(218.652344 0)"/>
     <use xlink:href="#DejaVuSans-65" transform="translate(272.9375 0)"/>
     <use xlink:href="#DejaVuSans-74" transform="translate(334.460938 0)"/>
     <use xlink:href="#DejaVuSans-29" transform="translate(373.669922 0)"/>
    </g>
   </g>
   <g id="text_10">
    <!-- $R_{bias1}$ -->
    <g transform="translate(120.727159 77.09383) scale(0.12 -0.12)">
     <defs>
      <path id="DejaVuSans-Oblique-62" d="M 3169 2138 
Q 3169 2591 2961 2847 
Q 2753 3103 2388 3103 
Q 2122 3103 1889 2973 
Q 1656 2844 1484 2597 
Q 1303 2338 1198 1995 
Q 1094 1653 1094 1313 
Q 1094 881 1298 636 
Q 1503 391 1863 391 
Q 2134 391 2365 517 
Q 2597 644 2772 891 
Q 2950 1147 3059 1487 
Q 3169 1828 3169 2138 
z
M 1381 2969 
Q 1594 3256 1914 3420 
Q 2234 3584 2584 3584 
Q 3122 3584 3439 3221 
Q 3756 2859 3756 2241 
Q 3756 1734 3570 1259 
Q 3384 784 3041 416 
Q 2816 172 2522 40 
Q 2228 -91 1906 -91 
Q 1566 -91 1316 65 
Q 1066 222 909 531 
L 806 0 
L 231 0 
L 1178 4863 
L 1753 4863 
L 1381 2969 
z
" transform="scale(0.015625)"/>
      <path id="DejaVuSans-Oblique-73" d="M 3200 3397 
L 3091 2853 
Q 2863 2978 2609 3040 
Q 2356 3103 2088 3103 
Q 1634 3103 1373 2948 
Q 1113 2794 1113 2528 
Q 1113 2219 1719 2053 
Q 1766 2041 1788 2034 
L 1972 1978 
Q 2547 1819 2739 1644 
Q 2931 1469 2931 1166 
Q 2931 609 2489 259 
Q 2047 -91 1331 -91 
Q 1053 -91 747 -37 
Q 441 16 72 128 
L 184 722 
Q 500 559 806 475 
Q 1113 391 1394 391 
Q 1816 391 2080 572 
Q 2344 753 2344 1031 
Q 2344 1331 1650 1516 
L 1591 1531 
L 1394 1581 
Q 956 1697 753 1886 
Q 550 2075 550 2369 
Q 550 2928 970 3256 
Q 1391 3584 2113 3584 
Q 2397 3584 2667 3537 
Q 2938 3491 3200 3397 
z
" transform="scale(0.015625)"/>
     </defs>
     <use xlink:href="#DejaVuSans-Oblique-52" transform="translate(0 0.09375)"/>
     <use xlink:href="#DejaVuSans-Oblique-62" transform="translate(69.482422 -16.3125) scale(0.7)"/>
     <use xlink:href="#DejaVuSans-Oblique-69" transform="translate(113.916016 -16.3125) scale(0.7)"/>
     <use xlink:href="#DejaVuSans-Oblique-61" transform="translate(133.364258 -16.3125) scale(0.7)"/>
     <use xlink:href="#DejaVuSans-Oblique-73" transform="translate(176.259766 -16.3125) scale(0.7)"/>
     <use xlink:href="#DejaVuSans-31" transform="translate(212.729492 -16.3125) scale(0.7)"/>
    </g>
    <!-- 100k -->
    <g transform="translate(122.073409 88.70758) scale(0.12 -0.12)">
     <use xlink:href="#DejaVuSans-31"/>
     <use xlink:href="#DejaVuSans-30" transform="translate(63.623047 0)"/>
     <use xlink:href="#DejaVuSans-30" transform="translate(127.246094 0)"/>
     <use xlink:href="#DejaVuSans-6b" transform="translate(190.869141 0)"/>
    </g>
   </g>
   <g id="text_11">
    <!-- 3.3V -->
    <g transform="translate(150.866591 14.16542) scale(0.12 -0.12)">
     <defs>
      <path id="DejaVuSans-2e" d="M 684 794 
L 1344 794 
L 1344 0 
L 684 0 
L 684 794 
z
" transform="scale(0.015625)"/>
      <path id="DejaVuSans-56" d="M 1831 0 
L 50 4666 
L 709 4666 
L 2188 738 
L 3669 4666 
L 4325 4666 
L 2547 0 
L 1831 0 
z
" transform="scale(0.015625)"/>
     </defs>
     <use xlink:href="#DejaVuSans-33"/>
     <use xlink:href="#DejaVuSans-2e" transform="translate(63.623047 0)"/>
     <use xlink:href="#DejaVuSans-33" transform="translate(95.410156 0)"/>
     <use xlink:href="#DejaVuSans-56" transform="translate(159.033203 0)"/>
    </g>
   </g>
   <g id="text_12">
    <!-- $R_{bias2}$ -->
    <g transform="translate(120.727159 166.991557) scale(0.12 -0.12)">
     <use xlink:href="#DejaVuSans-Oblique-52" transform="translate(0 0.09375)"/>
     <use xlink:href="#DejaVuSans-Oblique-62" transform="translate(69.482422 -16.3125) scale(0.7)"/>
     <use xlink:href="#DejaVuSans-Oblique-69" transform="translate(113.916016 -16.3125) scale(0.7)"/>
     <use xlink:href="#DejaVuSans-Oblique-61" transform="translate(133.364258 -16.3125) scale(0.7)"/>
     <use xlink:href="#DejaVuSans-Oblique-73" transform="translate(176.259766 -16.3125) scale(0.7)"/>
     <use xlink:href="#DejaVuSans-32" transform="translate(212.729492 -16.3125) scale(0.7)"/>
    </g>
    <!-- 100k -->
    <g transform="translate(122.073409 178.605307) scale(0.12 -0.12)">
     <use xlink:href="#DejaVuSans-31"/>
     <use xlink:href="#DejaVuSans-30" transform="translate(63.623047 0)"/>
     <use xlink:href="#DejaVuSans-30" transform="translate(127.246094 0)"/>
     <use xlink:href="#DejaVuSans-6b" transform="translate(190.869141 0)"/>
    </g>
   </g>
   <g id="text_13">
    <!-- $C_{filter}$ -->
    <g transform="translate(33.709432 166.991557) scale(0.12 -0.12)">
     <defs>
      <path id="DejaVuSans-Oblique-66" d="M 3059 4863 
L 2969 4384 
L 2419 4384 
Q 2106 4384 1964 4261 
Q 1822 4138 1753 3809 
L 1691 3500 
L 2638 3500 
L 2553 3053 
L 1606 3053 
L 1013 0 
L 434 0 
L 1031 3053 
L 481 3053 
L 563 3500 
L 1113 3500 
L 1159 3744 
Q 1278 4363 1576 4613 
Q 1875 4863 2516 4863 
L 3059 4863 
z
" transform="scale(0.015625)"/>
      <path id="DejaVuSans-Oblique-6c" d="M 1172 4863 
L 1747 4863 
L 800 0 
L 225 0 
L 1172 4863 
z
" transform="scale(0.015625)"/>
     </defs>
     <use xlink:href="#DejaVuSans-Oblique-43" transform="translate(0 0.78125)"/>
     <use xlink:href="#DejaVuSans-Oblique-66" transform="translate(69.824219 -15.625) scale(0.7)"/>
     <use xlink:href="#DejaVuSans-Oblique-69" transform="translate(94.467773 -15.625) scale(0.7)"/>
     <use xlink:href="#DejaVuSans-Oblique-6c" transform="translate(113.916016 -15.625) scale(0.7)"/>
     <use xlink:href="#DejaVuSans-Oblique-74" transform="translate(133.364258 -15.625) scale(0.7)"/>
     <use xlink:href="#DejaVuSans-Oblique-65" transform="translate(160.810547 -15.625) scale(0.7)"/>
     <use xlink:href="#DejaVuSans-Oblique-72" transform="translate(203.876953 -15.625) scale(0.7)"/>
    </g>
    <!-- 10uF -->
    <g transform="translate(32.252557 178.605307) scale(0.12 -0.12)">
     <use xlink:href="#DejaVuSans-31"/>
     <use xlink:href="#DejaVuSans-30" transform="translate(63.623047 0)"/>
     <use xlink:href="#DejaVuSans-75" transform="translate(127.246094 0)"/>
     <use xlink:href="#DejaVuSans-46" transform="translate(190.625 0)"/>
    </g>
   </g>
   <g id="text_14">
    <!-- $R_{clamp}$ -->
    <g transform="translate(408.05625 289.720364) scale(0.12 -0.12)">
     <use xlink:href="#DejaVuSans-Oblique-52" transform="translate(0 0.09375)"/>
     <use xlink:href="#DejaVuSans-Oblique-63" transform="translate(69.482422 -16.3125) scale(0.7)"/>
     <use xlink:href="#DejaVuSans-Oblique-6c" transform="translate(107.96875 -16.3125) scale(0.7)"/>
     <use xlink:href="#DejaVuSans-Oblique-61" transform="translate(127.416992 -16.3125) scale(0.7)"/>
     <use xlink:href="#DejaVuSans-Oblique-6d" transform="translate(170.3125 -16.3125) scale(0.7)"/>
     <use xlink:href="#DejaVuSans-Oblique-70" transform="translate(238.500977 -16.3125) scale(0.7)"/>
    </g>
    <!-- 10k -->
    <g transform="translate(414.106875 302.558489) scale(0.12 -0.12)">
     <use xlink:href="#DejaVuSans-31"/>
     <use xlink:href="#DejaVuSans-30" transform="translate(63.623047 0)"/>
     <use xlink:href="#DejaVuSans-6b" transform="translate(127.246094 0)"/>
    </g>
   </g>
   <g id="text_15">
    <!-- D_top -->
    <g transform="translate(422.674432 178.830477) scale(0.12 -0.12)">
     <defs>
      <path id="DejaVuSans-5f" d="M 3263 -1063 
L 3263 -1509 
L -63 -1509 
L -63 -1063 
L 3263 -1063 
z
" transform="scale(0.015625)"/>
      <path id="DejaVuSans-70" d="M 1159 525 
L 1159 -1331 
L 581 -1331 
L 581 3500 
L 1159 3500 
L 1159 2969 
Q 1341 3281 1617 3432 
Q 1894 3584 2278 3584 
Q 2916 3584 3314 3078 
Q 3713 2572 3713 1747 
Q 3713 922 3314 415 
Q 2916 -91 2278 -91 
Q 1894 -91 1617 61 
Q 1341 213 1159 525 
z
M 3116 1747 
Q 3116 2381 2855 2742 
Q 2594 3103 2138 3103 
Q 1681 3103 1420 2742 
Q 1159 2381 1159 1747 
Q 1159 1113 1420 752 
Q 1681 391 2138 391 
Q 2594 391 2855 752 
Q 3116 1113 3116 1747 
z
" transform="scale(0.015625)"/>
     </defs>
     <use xlink:href="#DejaVuSans-44"/>
     <use xlink:href="#DejaVuSans-5f" transform="translate(77.001953 0)"/>
     <use xlink:href="#DejaVuSans-74" transform="translate(127.001953 0)"/>
     <use xlink:href="#DejaVuSans-6f" transform="translate(166.210938 0)"/>
     <use xlink:href="#DejaVuSans-70" transform="translate(227.392578 0)"/>
    </g>
    <!--  -->
    <g transform="translate(457.579432 190.777977) scale(0.12 -0.12)"/>
    <!-- 1N4148 -->
    <g transform="translate(410.426932 202.391727) scale(0.12 -0.12)">
     <defs>
      <path id="DejaVuSans-38" d="M 2034 2216 
Q 1584 2216 1326 1975 
Q 1069 1734 1069 1313 
Q 1069 891 1326 650 
Q 1584 409 2034 409 
Q 2484 409 2743 651 
Q 3003 894 3003 1313 
Q 3003 1734 2745 1975 
Q 2488 2216 2034 2216 
z
M 1403 2484 
Q 997 2584 770 2862 
Q 544 3141 544 3541 
Q 544 4100 942 4425 
Q 1341 4750 2034 4750 
Q 2731 4750 3128 4425 
Q 3525 4100 3525 3541 
Q 3525 3141 3298 2862 
Q 3072 2584 2669 2484 
Q 3125 2378 3379 2068 
Q 3634 1759 3634 1313 
Q 3634 634 3220 271 
Q 2806 -91 2034 -91 
Q 1263 -91 848 271 
Q 434 634 434 1313 
Q 434 1759 690 2068 
Q 947 2378 1403 2484 
z
M 1172 3481 
Q 1172 3119 1398 2916 
Q 1625 2713 2034 2713 
Q 2441 2713 2670 2916 
Q 2900 3119 2900 3481 
Q 2900 3844 2670 4047 
Q 2441 4250 2034 4250 
Q 1625 4250 1398 4047 
Q 1172 3844 1172 3481 
z
" transform="scale(0.015625)"/>
     </defs>
     <use xlink:href="#DejaVuSans-31"/>
     <use xlink:href="#DejaVuSans-4e" transform="translate(63.623047 0)"/>
     <use xlink:href="#DejaVuSans-34" transform="translate(138.427734 0)"/>
     <use xlink:href="#DejaVuSans-31" transform="translate(202.050781 0)"/>
     <use xlink:href="#DejaVuSans-34" transform="translate(265.673828 0)"/>
     <use xlink:href="#DejaVuSans-38" transform="translate(329.296875 0)"/>
    </g>
   </g>
   <g id="text_16">
    <!-- 3.3V -->
    <g transform="translate(456.518864 122.042693) scale(0.12 -0.12)">
     <use xlink:href="#DejaVuSans-33"/>
     <use xlink:href="#DejaVuSans-2e" transform="translate(63.623047 0)"/>
     <use xlink:href="#DejaVuSans-33" transform="translate(95.410156 0)"/>
     <use xlink:href="#DejaVuSans-56" transform="translate(159.033203 0)"/>
    </g>
   </g>
   <g id="text_17">
    <!-- D_bot -->
    <g transform="translate(482.750795 340.813261) scale(0.12 -0.12)">
     <defs>
      <path id="DejaVuSans-62" d="M 3116 1747 
Q 3116 2381 2855 2742 
Q 2594 3103 2138 3103 
Q 1681 3103 1420 2742 
Q 1159 2381 1159 1747 
Q 1159 1113 1420 752 
Q 1681 391 2138 391 
Q 2594 391 2855 752 
Q 3116 1113 3116 1747 
z
M 1159 2969 
Q 1341 3281 1617 3432 
Q 1894 3584 2278 3584 
Q 2916 3584 3314 3078 
Q 3713 2572 3713 1747 
Q 3713 922 3314 415 
Q 2916 -91 2278 -91 
Q 1894 -91 1617 61 
Q 1341 213 1159 525 
L 1159 0 
L 581 0 
L 581 4863 
L 1159 4863 
L 1159 2969 
z
" transform="scale(0.015625)"/>
     </defs>
     <use xlink:href="#DejaVuSans-44"/>
     <use xlink:href="#DejaVuSans-5f" transform="translate(77.001953 0)"/>
     <use xlink:href="#DejaVuSans-62" transform="translate(127.001953 0)"/>
     <use xlink:href="#DejaVuSans-6f" transform="translate(190.478516 0)"/>
     <use xlink:href="#DejaVuSans-74" transform="translate(251.660156 0)"/>
    </g>
    <!--  -->
    <g transform="translate(482.750795 352.760761) scale(0.12 -0.12)"/>
    <!-- 1N4148 -->
    <g transform="translate(482.750795 364.374511) scale(0.12 -0.12)">
     <use xlink:href="#DejaVuSans-31"/>
     <use xlink:href="#DejaVuSans-4e" transform="translate(63.623047 0)"/>
     <use xlink:href="#DejaVuSans-34" transform="translate(138.427734 0)"/>
     <use xlink:href="#DejaVuSans-31" transform="translate(202.050781 0)"/>
     <use xlink:href="#DejaVuSans-34" transform="translate(265.673828 0)"/>
     <use xlink:href="#DejaVuSans-38" transform="translate(329.296875 0)"/>
    </g>
   </g>
   <g id="patch_4">
    <path d="M 38.656023 271.071614 
C 39.371257 271.071614 40.057294 270.787448 40.563042 270.281701 
C 41.068789 269.775953 41.352955 269.089916 41.352955 268.374682 
C 41.352955 267.659447 41.068789 266.97341 40.563042 266.467663 
C 40.057294 265.961916 39.371257 265.67775 38.656023 265.67775 
C 37.940788 265.67775 37.254751 265.961916 36.749004 266.467663 
C 36.243257 266.97341 35.959091 267.659447 35.959091 268.374682 
C 35.959091 269.089916 36.243257 269.775953 36.749004 270.281701 
C 37.254751 270.787448 37.940788 271.071614 38.656023 271.071614 
z
" clip-path="url(#p2ea6ac00ea)" style="fill: #ffffff; stroke: #000000; stroke-width: 2; stroke-linejoin: miter"/>
   </g>
   <g id="text_18">
    <!-- Input -->
    <g transform="translate(1.290682 271.685932) scale(0.12 -0.12)">
     <use xlink:href="#DejaVuSans-49"/>
     <use xlink:href="#DejaVuSans-6e" transform="translate(29.492188 0)"/>
     <use xlink:href="#DejaVuSans-70" transform="translate(92.871094 0)"/>
     <use xlink:href="#DejaVuSans-75" transform="translate(156.347656 0)"/>
     <use xlink:href="#DejaVuSans-74" transform="translate(219.726562 0)"/>
    </g>
   </g>
   <g id="patch_5">
    <path d="M 308.349205 271.071614 
C 309.064439 271.071614 309.750476 270.787448 310.256223 270.281701 
C 310.761971 269.775953 311.046136 269.089916 311.046136 268.374682 
C 311.046136 267.659447 310.761971 266.97341 310.256223 266.467663 
C 309.750476 265.961916 309.064439 265.67775 308.349205 265.67775 
C 307.63397 265.67775 306.947933 265.961916 306.442186 266.467663 
C 305.936438 266.97341 305.652273 267.659447 305.652273 268.374682 
C 305.652273 269.089916 305.936438 269.775953 306.442186 270.281701 
C 306.947933 270.787448 307.63397 271.071614 308.349205 271.071614 
z
" clip-path="url(#p2ea6ac00ea)" style="stroke: #000000; stroke-width: 2; stroke-linejoin: miter"/>
   </g>
   <g id="patch_6">
    <path d="M 344.308295 360.969341 
C 345.02353 360.969341 345.709567 360.685175 346.215314 360.179428 
C 346.721062 359.673681 347.005227 358.987644 347.005227 358.272409 
C 347.005227 357.557174 346.721062 356.871138 346.215314 356.36539 
C 345.709567 355.859643 345.02353 355.575477 344.308295 355.575477 
C 343.593061 355.575477 342.907024 355.859643 342.401277 356.36539 
C 341.895529 356.871138 341.611364 357.557174 341.611364 358.272409 
C 341.611364 358.987644 341.895529 359.673681 342.401277 360.179428 
C 342.907024 360.685175 343.593061 360.969341 344.308295 360.969341 
z
" clip-path="url(#p2ea6ac00ea)" style="fill: #ffffff; stroke: #000000; stroke-width: 2; stroke-linejoin: miter"/>
   </g>
   <g id="patch_7">
    <path d="M 164.512841 127.23525 
C 165.228076 127.23525 165.914112 126.951084 166.41986 126.445337 
C 166.925607 125.93959 167.209773 125.253553 167.209773 124.538318 
C 167.209773 123.823084 166.925607 123.137047 166.41986 122.631299 
C 165.914112 122.125552 165.228076 121.841386 164.512841 121.841386 
C 163.797606 121.841386 163.111569 122.125552 162.605822 122.631299 
C 162.100075 123.137047 161.815909 123.823084 161.815909 124.538318 
C 161.815909 125.253553 162.100075 125.93959 162.605822 126.445337 
C 163.111569 126.951084 163.797606 127.23525 164.512841 127.23525 
z
" clip-path="url(#p2ea6ac00ea)" style="stroke: #000000; stroke-width: 2; stroke-linejoin: miter"/>
   </g>
   <g id="text_19">
    <!-- $V_{mid}$ -->
    <g transform="translate(188.785227 116.235818) scale(0.12 -0.12)">
     <use xlink:href="#DejaVuSans-Oblique-56" transform="translate(0 0.09375)"/>
     <use xlink:href="#DejaVuSans-Oblique-6d" transform="translate(68.408203 -16.3125) scale(0.7)"/>
     <use xlink:href="#DejaVuSans-Oblique-69" transform="translate(136.59668 -16.3125) scale(0.7)"/>
     <use xlink:href="#DejaVuSans-Oblique-64" transform="translate(156.044922 -16.3125) scale(0.7)"/>
    </g>
    <!--  -->
    <g transform="translate(188.785227 127.849568) scale(0.12 -0.12)"/>
    <!-- (1.65V) -->
    <g transform="translate(188.785227 139.463318) scale(0.12 -0.12)">
     <defs>
      <path id="DejaVuSans-36" d="M 2113 2584 
Q 1688 2584 1439 2293 
Q 1191 2003 1191 1497 
Q 1191 994 1439 701 
Q 1688 409 2113 409 
Q 2538 409 2786 701 
Q 3034 994 3034 1497 
Q 3034 2003 2786 2293 
Q 2538 2584 2113 2584 
z
M 3366 4563 
L 3366 3988 
Q 3128 4100 2886 4159 
Q 2644 4219 2406 4219 
Q 1781 4219 1451 3797 
Q 1122 3375 1075 2522 
Q 1259 2794 1537 2939 
Q 1816 3084 2150 3084 
Q 2853 3084 3261 2657 
Q 3669 2231 3669 1497 
Q 3669 778 3244 343 
Q 2819 -91 2113 -91 
Q 1303 -91 875 529 
Q 447 1150 447 2328 
Q 447 3434 972 4092 
Q 1497 4750 2381 4750 
Q 2619 4750 2861 4703 
Q 3103 4656 3366 4563 
z
" transform="scale(0.015625)"/>
      <path id="DejaVuSans-35" d="M 691 4666 
L 3169 4666 
L 3169 4134 
L 1269 4134 
L 1269 2991 
Q 1406 3038 1543 3061 
Q 1681 3084 1819 3084 
Q 2600 3084 3056 2656 
Q 3513 2228 3513 1497 
Q 3513 744 3044 326 
Q 2575 -91 1722 -91 
Q 1428 -91 1123 -41 
Q 819 9 494 109 
L 494 744 
Q 775 591 1075 516 
Q 1375 441 1709 441 
Q 2250 441 2565 725 
Q 2881 1009 2881 1497 
Q 2881 1984 2565 2268 
Q 2250 2553 1709 2553 
Q 1456 2553 1204 2497 
Q 953 2441 691 2322 
L 691 4666 
z
" transform="scale(0.015625)"/>
     </defs>
     <use xlink:href="#DejaVuSans-28"/>
     <use xlink:href="#DejaVuSans-31" transform="translate(39.013672 0)"/>
     <use xlink:href="#DejaVuSans-2e" transform="translate(102.636719 0)"/>
     <use xlink:href="#DejaVuSans-36" transform="translate(134.423828 0)"/>
     <use xlink:href="#DejaVuSans-35" transform="translate(198.046875 0)"/>
     <use xlink:href="#DejaVuSans-56" transform="translate(261.669922 0)"/>
     <use xlink:href="#DejaVuSans-29" transform="translate(330.078125 0)"/>
    </g>
   </g>
   <g id="patch_8">
    <path d="M 470.165114 271.071614 
C 470.880348 271.071614 471.566385 270.787448 472.072132 270.281701 
C 472.57788 269.775953 472.862045 269.089916 472.862045 268.374682 
C 472.862045 267.659447 472.57788 266.97341 472.072132 266.467663 
C 471.566385 265.961916 470.880348 265.67775 470.165114 265.67775 
C 469.449879 265.67775 468.763842 265.961916 468.258095 266.467663 
C 467.752348 266.97341 467.468182 267.659447 467.468182 268.374682 
C 467.468182 269.089916 467.752348 269.775953 468.258095 270.281701 
C 468.763842 270.787448 469.449879 271.071614 470.165114 271.071614 
z
" clip-path="url(#p2ea6ac00ea)" style="stroke: #000000; stroke-width: 2; stroke-linejoin: miter"/>
   </g>
   <g id="patch_9">
    <path d="M 524.10375 271.071614 
C 524.818985 271.071614 525.505021 270.787448 526.010769 270.281701 
C 526.516516 269.775953 526.800682 269.089916 526.800682 268.374682 
C 526.800682 267.659447 526.516516 266.97341 526.010769 266.467663 
C 525.505021 265.961916 524.818985 265.67775 524.10375 265.67775 
C 523.388515 265.67775 522.702479 265.961916 522.196731 266.467663 
C 521.690984 266.97341 521.406818 267.659447 521.406818 268.374682 
C 521.406818 269.089916 521.690984 269.775953 522.196731 270.281701 
C 522.702479 270.787448 523.388515 271.071614 524.10375 271.071614 
z
" clip-path="url(#p2ea6ac00ea)" style="fill: #ffffff; stroke: #000000; stroke-width: 2; stroke-linejoin: miter"/>
   </g>
   <g id="text_20">
    <!-- RP2040 -->
    <g transform="translate(530.396591 265.879057) scale(0.12 -0.12)">
     <use xlink:href="#DejaVuSans-52"/>
     <use xlink:href="#DejaVuSans-50" transform="translate(69.482422 0)"/>
     <use xlink:href="#DejaVuSans-32" transform="translate(129.785156 0)"/>
     <use xlink:href="#DejaVuSans-30" transform="translate(193.408203 0)"/>
     <use xlink:href="#DejaVuSans-34" transform="translate(257.03125 0)"/>
     <use xlink:href="#DejaVuSans-30" transform="translate(320.654297 0)"/>
    </g>
    <!-- ADC -->
    <g transform="translate(530.396591 277.492807) scale(0.12 -0.12)">
     <use xlink:href="#DejaVuSans-41"/>
     <use xlink:href="#DejaVuSans-44" transform="translate(68.408203 0)"/>
     <use xlink:href="#DejaVuSans-43" transform="translate(145.410156 0)"/>
    </g>
   </g>
  </g>
 </g>
 <defs>
  <clipPath id="p2ea6ac00ea">
   <rect x="0" y="0" width="578.509855" height="421.92"/>
  </clipPath>
 </defs>
</svg>
