<?xml version="1.0" encoding="utf-8" standalone="no"?>
<!DOCTYPE svg PUBLIC "-//W3C//DTD SVG 1.1//EN"
  "http://www.w3.org/Graphics/SVG/1.1/DTD/svg11.dtd">
<svg xmlns:xlink="http://www.w3.org/1999/xlink" width="624.353125pt" height="186pt" viewBox="0 0 624.353125 186" xmlns="http://www.w3.org/2000/svg" version="1.1">
 <metadata>
  <rdf:RDF xmlns:dc="http://purl.org/dc/elements/1.1/" xmlns:cc="http://creativecommons.org/ns#" xmlns:rdf="http://www.w3.org/1999/02/22-rdf-syntax-ns#">
   <cc:Work>
    <dc:type rdf:resource="http://purl.org/dc/dcmitype/StillImage"/>
    <dc:date>2026-01-22T18:24:53.440467</dc:date>
    <dc:format>image/svg+xml</dc:format>
    <dc:creator>
     <cc:Agent>
      <dc:title>Matplotlib v3.10.8, https://matplotlib.org/</dc:title>
     </cc:Agent>
    </dc:creator>
   </cc:Work>
  </rdf:RDF>
 </metadata>
 <defs>
  <style type="text/css">*{stroke-linejoin: round; stroke-linecap: butt}</style>
 </defs>
 <g id="figure_1">
  <g id="patch_1">
   <path d="M 0 186 
L 624.353125 186 
L 624.353125 0 
L 0 0 
z
" style="fill: #ffffff"/>
  </g>
  <g id="axes_1">
   <g id="patch_2">
    <path d="M 146.384375 59.28 
L 158.984375 68.28 
L 146.384375 77.28 
L 146.384375 59.28 
z
" clip-path="url(#p974335e411)" style="fill: none; stroke: #000000; stroke-width: 2; stroke-linecap: round"/>
   </g>
   <g id="line2d_1">
    <path d="M 78.884375 158.28 
L 78.884375 172.68 
L 69.884375 172.68 
L 87.884375 172.68 
M 72.584375 177 
L 85.184375 177 
M 77.084375 181.32 
L 80.684375 181.32 
" clip-path="url(#p974335e411)" style="fill: none; stroke: #000000; stroke-width: 2; stroke-linecap: round"/>
   </g>
   <g id="line2d_2">
    <path d="M 78.884375 68.28 
L 93.284375 68.28 
L 107.684375 68.28 
" clip-path="url(#p974335e411)" style="fill: none; stroke: #000000; stroke-width: 2; stroke-linecap: round"/>
   </g>
   <g id="line2d_3">
    <path d="M 107.684375 68.28 
L 146.384375 68.28 
M 158.984375 59.28 
L 158.984375 77.28 
M 158.984375 68.28 
L 197.684375 68.28 
" clip-path="url(#p974335e411)" style="fill: none; stroke: #000000; stroke-width: 2; stroke-linecap: round"/>
   </g>
   <g id="line2d_4">
    <path d="M 158.984375 59.28 
L 155.384375 59.28 
L 155.384375 62.88 
" clip-path="url(#p974335e411)" style="fill: none; stroke: #000000; stroke-width: 2; stroke-linecap: round"/>
   </g>
   <g id="line2d_5">
    <path d="M 158.984375 77.28 
L 162.584375 77.28 
L 162.584375 73.68 
" clip-path="url(#p974335e411)" style="fill: none; stroke: #000000; stroke-width: 2; stroke-linecap: round"/>
   </g>
   <g id="line2d_6">
    <path d="M 197.684375 68.28 
L 212.084375 68.28 
L 226.484375 68.28 
" clip-path="url(#p974335e411)" style="fill: none; stroke: #000000; stroke-width: 2; stroke-linecap: round"/>
   </g>
   <g id="line2d_7">
    <path d="M 226.484375 68.28 
L 226.484375 110.04 
M 235.484375 110.04 
L 217.484375 110.04 
M 235.484375 116.52 
L 217.484375 116.52 
M 226.484375 116.52 
L 226.484375 158.28 
" clip-path="url(#p974335e411)" style="fill: none; stroke: #000000; stroke-width: 2; stroke-linecap: round"/>
   </g>
   <g id="line2d_8">
    <path d="M 226.484375 158.28 
L 226.484375 172.68 
L 217.484375 172.68 
L 235.484375 172.68 
M 220.184375 177 
L 232.784375 177 
M 224.684375 181.32 
L 228.284375 181.32 
" clip-path="url(#p974335e411)" style="fill: none; stroke: #000000; stroke-width: 2; stroke-linecap: round"/>
   </g>
   <g id="line2d_9">
    <path d="M 226.484375 68.28 
L 258.884375 68.28 
L 291.284375 68.28 
" clip-path="url(#p974335e411)" style="fill: none; stroke: #000000; stroke-width: 2; stroke-linecap: round"/>
   </g>
   <g id="line2d_10">
    <path d="M 291.284375 68.28 
L 291.284375 110.04 
M 300.284375 110.04 
L 282.284375 110.04 
M 300.284375 116.52 
L 282.284375 116.52 
M 291.284375 116.52 
L 291.284375 158.28 
" clip-path="url(#p974335e411)" style="fill: none; stroke: #000000; stroke-width: 2; stroke-linecap: round"/>
   </g>
   <g id="line2d_11">
    <path d="M 291.284375 158.28 
L 291.284375 172.68 
L 282.284375 172.68 
L 300.284375 172.68 
M 284.984375 177 
L 297.584375 177 
M 289.484375 181.32 
L 293.084375 181.32 
" clip-path="url(#p974335e411)" style="fill: none; stroke: #000000; stroke-width: 2; stroke-linecap: round"/>
   </g>
   <g id="line2d_12">
    <path d="M 291.284375 68.28 
L 305.684375 68.28 
L 320.084375 68.28 
" clip-path="url(#p974335e411)" style="fill: none; stroke: #000000; stroke-width: 2; stroke-linecap: round"/>
   </g>
   <g id="line2d_13">
    <path d="M 338.084375 104.28 
L 410.084375 104.28 
L 410.084375 50.28 
L 338.084375 50.28 
L 338.084375 104.28 
" clip-path="url(#p974335e411)" style="fill: none; stroke: #000000; stroke-width: 2; stroke-linecap: round"/>
   </g>
   <g id="line2d_14">
    <path d="M 338.084375 68.28 
L 320.084375 68.28 
" clip-path="url(#p974335e411)" style="fill: none; stroke: #000000; stroke-width: 2; stroke-linecap: round"/>
   </g>
   <g id="line2d_15">
    <path d="M 410.084375 68.28 
L 428.084375 68.28 
" clip-path="url(#p974335e411)" style="fill: none; stroke: #000000; stroke-width: 2; stroke-linecap: round"/>
   </g>
   <g id="line2d_16">
    <path d="M 374.084375 104.28 
L 374.084375 122.28 
" clip-path="url(#p974335e411)" style="fill: none; stroke: #000000; stroke-width: 2; stroke-linecap: round"/>
   </g>
   <g id="line2d_17">
    <path d="M 374.084375 122.28 
L 374.084375 136.68 
L 365.084375 136.68 
L 383.084375 136.68 
M 367.784375 141 
L 380.384375 141 
M 372.284375 145.32 
L 375.884375 145.32 
" clip-path="url(#p974335e411)" style="fill: none; stroke: #000000; stroke-width: 2; stroke-linecap: round"/>
   </g>
   <g id="line2d_18">
    <path d="M 428.084375 68.28 
L 442.484375 68.28 
L 456.884375 68.28 
" clip-path="url(#p974335e411)" style="fill: none; stroke: #000000; stroke-width: 2; stroke-linecap: round"/>
   </g>
   <g id="line2d_19">
    <path d="M 456.884375 68.28 
L 456.884375 110.04 
M 465.884375 110.04 
L 447.884375 110.04 
M 465.884375 116.52 
L 447.884375 116.52 
M 456.884375 116.52 
L 456.884375 158.28 
" clip-path="url(#p974335e411)" style="fill: none; stroke: #000000; stroke-width: 2; stroke-linecap: round"/>
   </g>
   <g id="line2d_20">
    <path d="M 456.884375 158.28 
L 456.884375 172.68 
L 447.884375 172.68 
L 465.884375 172.68 
M 450.584375 177 
L 463.184375 177 
M 455.084375 181.32 
L 458.684375 181.32 
" clip-path="url(#p974335e411)" style="fill: none; stroke: #000000; stroke-width: 2; stroke-linecap: round"/>
   </g>
   <g id="line2d_21">
    <path d="M 456.884375 68.28 
L 489.284375 68.28 
L 521.684375 68.28 
" clip-path="url(#p974335e411)" style="fill: none; stroke: #000000; stroke-width: 2; stroke-linecap: round"/>
   </g>
   <g id="line2d_22">
    <path d="M 521.684375 68.28 
L 521.684375 110.04 
M 530.684375 110.04 
L 512.684375 110.04 
M 530.684375 116.52 
L 512.684375 116.52 
M 521.684375 116.52 
L 521.684375 158.28 
" clip-path="url(#p974335e411)" style="fill: none; stroke: #000000; stroke-width: 2; stroke-linecap: round"/>
   </g>
   <g id="line2d_23">
    <path d="M 521.684375 158.28 
L 521.684375 172.68 
L 512.684375 172.68 
L 530.684375 172.68 
M 515.384375 177 
L 527.984375 177 
M 519.884375 181.32 
L 523.484375 181.32 
" clip-path="url(#p974335e411)" style="fill: none; stroke: #000000; stroke-width: 2; stroke-linecap: round"/>
   </g>
   <g id="line2d_24">
    <path d="M 521.684375 68.28 
L 536.084375 68.28 
L 550.484375 68.28 
" clip-path="url(#p974335e411)" style="fill: none; stroke: #000000; stroke-width: 2; stroke-linecap: round"/>
   </g>
   <g id="line2d_25">
    <path d="M 550.484375 158.28 
L 550.484375 172.68 
L 541.484375 172.68 
L 559.484375 172.68 
M 544.184375 177 
L 556.784375 177 
M 548.684375 181.32 
L 552.284375 181.32 
" clip-path="url(#p974335e411)" style="fill: none; stroke: #000000; stroke-width: 2; stroke-linecap: round"/>
   </g>
   <g id="text_1">
    <!-- 9V Center-Negative Power Supply -->
    <g transform="translate(53.351562 13.99125) scale(0.12 -0.12)">
     <defs>
      <path id="DejaVuSans-39" d="M 703 97 
L 703 672 
Q 941 559 1184 500 
Q 1428 441 1663 441 
Q 2288 441 2617 861 
Q 2947 1281 2994 2138 
Q 2813 1869 2534 1725 
Q 2256 1581 1919 1581 
Q 1219 1581 811 2004 
Q 403 2428 403 3163 
Q 403 3881 828 4315 
Q 1253 4750 1959 4750 
Q 2769 4750 3195 4129 
Q 3622 3509 3622 2328 
Q 3622 1225 3098 567 
Q 2575 -91 1691 -91 
Q 1453 -91 1209 -44 
Q 966 3 703 97 
z
M 1959 2075 
Q 2384 2075 2632 2365 
Q 2881 2656 2881 3163 
Q 2881 3666 2632 3958 
Q 2384 4250 1959 4250 
Q 1534 4250 1286 3958 
Q 1038 3666 1038 3163 
Q 1038 2656 1286 2365 
Q 1534 2075 1959 2075 
z
" transform="scale(0.015625)"/>
      <path id="DejaVuSans-56" d="M 1831 0 
L 50 4666 
L 709 4666 
L 2188 738 
L 3669 4666 
L 4325 4666 
L 2547 0 
L 1831 0 
z
" transform="scale(0.015625)"/>
      <path id="DejaVuSans-20" transform="scale(0.015625)"/>
      <path id="DejaVuSans-43" d="M 4122 4306 
L 4122 3641 
Q 3803 3938 3442 4084 
Q 3081 4231 2675 4231 
Q 1875 4231 1450 3742 
Q 1025 3253 1025 2328 
Q 1025 1406 1450 917 
Q 1875 428 2675 428 
Q 3081 428 3442 575 
Q 3803 722 4122 1019 
L 4122 359 
Q 3791 134 3420 21 
Q 3050 -91 2638 -91 
Q 1578 -91 968 557 
Q 359 1206 359 2328 
Q 359 3453 968 4101 
Q 1578 4750 2638 4750 
Q 3056 4750 3426 4639 
Q 3797 4528 4122 4306 
z
" transform="scale(0.015625)"/>
      <path id="DejaVuSans-65" d="M 3597 1894 
L 3597 1613 
L 953 1613 
Q 991 1019 1311 708 
Q 1631 397 2203 397 
Q 2534 397 2845 478 
Q 3156 559 3463 722 
L 3463 178 
Q 3153 47 2828 -22 
Q 2503 -91 2169 -91 
Q 1331 -91 842 396 
Q 353 884 353 1716 
Q 353 2575 817 3079 
Q 1281 3584 2069 3584 
Q 2775 3584 3186 3129 
Q 3597 2675 3597 1894 
z
M 3022 2063 
Q 3016 2534 2758 2815 
Q 2500 3097 2075 3097 
Q 1594 3097 1305 2825 
Q 1016 2553 972 2059 
L 3022 2063 
z
" transform="scale(0.015625)"/>
      <path id="DejaVuSans-6e" d="M 3513 2113 
L 3513 0 
L 2938 0 
L 2938 2094 
Q 2938 2591 2744 2837 
Q 2550 3084 2163 3084 
Q 1697 3084 1428 2787 
Q 1159 2491 1159 1978 
L 1159 0 
L 581 0 
L 581 3500 
L 1159 3500 
L 1159 2956 
Q 1366 3272 1645 3428 
Q 1925 3584 2291 3584 
Q 2894 3584 3203 3211 
Q 3513 2838 3513 2113 
z
" transform="scale(0.015625)"/>
      <path id="DejaVuSans-74" d="M 1172 4494 
L 1172 3500 
L 2356 3500 
L 2356 3053 
L 1172 3053 
L 1172 1153 
Q 1172 725 1289 603 
Q 1406 481 1766 481 
L 2356 481 
L 2356 0 
L 1766 0 
Q 1100 0 847 248 
Q 594 497 594 1153 
L 594 3053 
L 172 3053 
L 172 3500 
L 594 3500 
L 594 4494 
L 1172 4494 
z
" transform="scale(0.015625)"/>
      <path id="DejaVuSans-72" d="M 2631 2963 
Q 2534 3019 2420 3045 
Q 2306 3072 2169 3072 
Q 1681 3072 1420 2755 
Q 1159 2438 1159 1844 
L 1159 0 
L 581 0 
L 581 3500 
L 1159 3500 
L 1159 2956 
Q 1341 3275 1631 3429 
Q 1922 3584 2338 3584 
Q 2397 3584 2469 3576 
Q 2541 3569 2628 3553 
L 2631 2963 
z
" transform="scale(0.015625)"/>
      <path id="DejaVuSans-2d" d="M 313 2009 
L 1997 2009 
L 1997 1497 
L 313 1497 
L 313 2009 
z
" transform="scale(0.015625)"/>
      <path id="DejaVuSans-4e" d="M 628 4666 
L 1478 4666 
L 3547 763 
L 3547 4666 
L 4159 4666 
L 4159 0 
L 3309 0 
L 1241 3903 
L 1241 0 
L 628 0 
L 628 4666 
z
" transform="scale(0.015625)"/>
      <path id="DejaVuSans-67" d="M 2906 1791 
Q 2906 2416 2648 2759 
Q 2391 3103 1925 3103 
Q 1463 3103 1205 2759 
Q 947 2416 947 1791 
Q 947 1169 1205 825 
Q 1463 481 1925 481 
Q 2391 481 2648 825 
Q 2906 1169 2906 1791 
z
M 3481 434 
Q 3481 -459 3084 -895 
Q 2688 -1331 1869 -1331 
Q 1566 -1331 1297 -1286 
Q 1028 -1241 775 -1147 
L 775 -588 
Q 1028 -725 1275 -790 
Q 1522 -856 1778 -856 
Q 2344 -856 2625 -561 
Q 2906 -266 2906 331 
L 2906 616 
Q 2728 306 2450 153 
Q 2172 0 1784 0 
Q 1141 0 747 490 
Q 353 981 353 1791 
Q 353 2603 747 3093 
Q 1141 3584 1784 3584 
Q 2172 3584 2450 3431 
Q 2728 3278 2906 2969 
L 2906 3500 
L 3481 3500 
L 3481 434 
z
" transform="scale(0.015625)"/>
      <path id="DejaVuSans-61" d="M 2194 1759 
Q 1497 1759 1228 1600 
Q 959 1441 959 1056 
Q 959 750 1161 570 
Q 1363 391 1709 391 
Q 2188 391 2477 730 
Q 2766 1069 2766 1631 
L 2766 1759 
L 2194 1759 
z
M 3341 1997 
L 3341 0 
L 2766 0 
L 2766 531 
Q 2569 213 2275 61 
Q 1981 -91 1556 -91 
Q 1019 -91 701 211 
Q 384 513 384 1019 
Q 384 1609 779 1909 
Q 1175 2209 1959 2209 
L 2766 2209 
L 2766 2266 
Q 2766 2663 2505 2880 
Q 2244 3097 1772 3097 
Q 1472 3097 1187 3025 
Q 903 2953 641 2809 
L 641 3341 
Q 956 3463 1253 3523 
Q 1550 3584 1831 3584 
Q 2591 3584 2966 3190 
Q 3341 2797 3341 1997 
z
" transform="scale(0.015625)"/>
      <path id="DejaVuSans-69" d="M 603 3500 
L 1178 3500 
L 1178 0 
L 603 0 
L 603 3500 
z
M 603 4863 
L 1178 4863 
L 1178 4134 
L 603 4134 
L 603 4863 
z
" transform="scale(0.015625)"/>
      <path id="DejaVuSans-76" d="M 191 3500 
L 800 3500 
L 1894 563 
L 2988 3500 
L 3597 3500 
L 2284 0 
L 1503 0 
L 191 3500 
z
" transform="scale(0.015625)"/>
      <path id="DejaVuSans-50" d="M 1259 4147 
L 1259 2394 
L 2053 2394 
Q 2494 2394 2734 2622 
Q 2975 2850 2975 3272 
Q 2975 3691 2734 3919 
Q 2494 4147 2053 4147 
L 1259 4147 
z
M 628 4666 
L 2053 4666 
Q 2838 4666 3239 4311 
Q 3641 3956 3641 3272 
Q 3641 2581 3239 2228 
Q 2838 1875 2053 1875 
L 1259 1875 
L 1259 0 
L 628 0 
L 628 4666 
z
" transform="scale(0.015625)"/>
      <path id="DejaVuSans-6f" d="M 1959 3097 
Q 1497 3097 1228 2736 
Q 959 2375 959 1747 
Q 959 1119 1226 758 
Q 1494 397 1959 397 
Q 2419 397 2687 759 
Q 2956 1122 2956 1747 
Q 2956 2369 2687 2733 
Q 2419 3097 1959 3097 
z
M 1959 3584 
Q 2709 3584 3137 3096 
Q 3566 2609 3566 1747 
Q 3566 888 3137 398 
Q 2709 -91 1959 -91 
Q 1206 -91 779 398 
Q 353 888 353 1747 
Q 353 2609 779 3096 
Q 1206 3584 1959 3584 
z
" transform="scale(0.015625)"/>
      <path id="DejaVuSans-77" d="M 269 3500 
L 844 3500 
L 1563 769 
L 2278 3500 
L 2956 3500 
L 3675 769 
L 4391 3500 
L 4966 3500 
L 4050 0 
L 3372 0 
L 2619 2869 
L 1863 0 
L 1184 0 
L 269 3500 
z
" transform="scale(0.015625)"/>
      <path id="DejaVuSans-53" d="M 3425 4513 
L 3425 3897 
Q 3066 4069 2747 4153 
Q 2428 4238 2131 4238 
Q 1616 4238 1336 4038 
Q 1056 3838 1056 3469 
Q 1056 3159 1242 3001 
Q 1428 2844 1947 2747 
L 2328 2669 
Q 3034 2534 3370 2195 
Q 3706 1856 3706 1288 
Q 3706 609 3251 259 
Q 2797 -91 1919 -91 
Q 1588 -91 1214 -16 
Q 841 59 441 206 
L 441 856 
Q 825 641 1194 531 
Q 1563 422 1919 422 
Q 2459 422 2753 634 
Q 3047 847 3047 1241 
Q 3047 1584 2836 1778 
Q 2625 1972 2144 2069 
L 1759 2144 
Q 1053 2284 737 2584 
Q 422 2884 422 3419 
Q 422 4038 858 4394 
Q 1294 4750 2059 4750 
Q 2388 4750 2728 4690 
Q 3069 4631 3425 4513 
z
" transform="scale(0.015625)"/>
      <path id="DejaVuSans-75" d="M 544 1381 
L 544 3500 
L 1119 3500 
L 1119 1403 
Q 1119 906 1312 657 
Q 1506 409 1894 409 
Q 2359 409 2629 706 
Q 2900 1003 2900 1516 
L 2900 3500 
L 3475 3500 
L 3475 0 
L 2900 0 
L 2900 538 
Q 2691 219 2414 64 
Q 2138 -91 1772 -91 
Q 1169 -91 856 284 
Q 544 659 544 1381 
z
M 1991 3584 
L 1991 3584 
z
" transform="scale(0.015625)"/>
      <path id="DejaVuSans-70" d="M 1159 525 
L 1159 -1331 
L 581 -1331 
L 581 3500 
L 1159 3500 
L 1159 2969 
Q 1341 3281 1617 3432 
Q 1894 3584 2278 3584 
Q 2916 3584 3314 3078 
Q 3713 2572 3713 1747 
Q 3713 922 3314 415 
Q 2916 -91 2278 -91 
Q 1894 -91 1617 61 
Q 1341 213 1159 525 
z
M 3116 1747 
Q 3116 2381 2855 2742 
Q 2594 3103 2138 3103 
Q 1681 3103 1420 2742 
Q 1159 2381 1159 1747 
Q 1159 1113 1420 752 
Q 1681 391 2138 391 
Q 2594 391 2855 752 
Q 3116 1113 3116 1747 
z
" transform="scale(0.015625)"/>
      <path id="DejaVuSans-6c" d="M 603 4863 
L 1178 4863 
L 1178 0 
L 603 0 
L 603 4863 
z
" transform="scale(0.015625)"/>
      <path id="DejaVuSans-79" d="M 2059 -325 
Q 1816 -950 1584 -1140 
Q 1353 -1331 966 -1331 
L 506 -1331 
L 506 -850 
L 844 -850 
Q 1081 -850 1212 -737 
Q 1344 -625 1503 -206 
L 1606 56 
L 191 3500 
L 800 3500 
L 1894 763 
L 2988 3500 
L 3597 3500 
L 2059 -325 
z
" transform="scale(0.015625)"/>
     </defs>
     <use xlink:href="#DejaVuSans-39"/>
     <use xlink:href="#DejaVuSans-56" transform="translate(63.623047 0)"/>
     <use xlink:href="#DejaVuSans-20" transform="translate(132.03125 0)"/>
     <use xlink:href="#DejaVuSans-43" transform="translate(163.818359 0)"/>
     <use xlink:href="#DejaVuSans-65" transform="translate(233.642578 0)"/>
     <use xlink:href="#DejaVuSans-6e" transform="translate(295.166016 0)"/>
     <use xlink:href="#DejaVuSans-74" transform="translate(358.544922 0)"/>
     <use xlink:href="#DejaVuSans-65" transform="translate(397.753906 0)"/>
     <use xlink:href="#DejaVuSans-72" transform="translate(459.277344 0)"/>
     <use xlink:href="#DejaVuSans-2d" transform="translate(494.015625 0)"/>
     <use xlink:href="#DejaVuSans-4e" transform="translate(530.099609 0)"/>
     <use xlink:href="#DejaVuSans-65" transform="translate(604.904297 0)"/>
     <use xlink:href="#DejaVuSans-67" transform="translate(666.427734 0)"/>
     <use xlink:href="#DejaVuSans-61" transform="translate(729.904297 0)"/>
     <use xlink:href="#DejaVuSans-74" transform="translate(791.183594 0)"/>
     <use xlink:href="#DejaVuSans-69" transform="translate(830.392578 0)"/>
     <use xlink:href="#DejaVuSans-76" transform="translate(858.175781 0)"/>
     <use xlink:href="#DejaVuSans-65" transform="translate(917.355469 0)"/>
     <use xlink:href="#DejaVuSans-20" transform="translate(978.878906 0)"/>
     <use xlink:href="#DejaVuSans-50" transform="translate(1010.666016 0)"/>
     <use xlink:href="#DejaVuSans-6f" transform="translate(1067.34375 0)"/>
     <use xlink:href="#DejaVuSans-77" transform="translate(1128.525391 0)"/>
     <use xlink:href="#DejaVuSans-65" transform="translate(1210.3125 0)"/>
     <use xlink:href="#DejaVuSans-72" transform="translate(1271.835938 0)"/>
     <use xlink:href="#DejaVuSans-20" transform="translate(1312.949219 0)"/>
     <use xlink:href="#DejaVuSans-53" transform="translate(1344.736328 0)"/>
     <use xlink:href="#DejaVuSans-75" transform="translate(1408.212891 0)"/>
     <use xlink:href="#DejaVuSans-70" transform="translate(1471.591797 0)"/>
     <use xlink:href="#DejaVuSans-70" transform="translate(1535.068359 0)"/>
     <use xlink:href="#DejaVuSans-6c" transform="translate(1598.544922 0)"/>
     <use xlink:href="#DejaVuSans-79" transform="translate(1626.328125 0)"/>
    </g>
   </g>
   <g id="text_2">
    <!-- $D_{prot}$ -->
    <g transform="translate(143.724375 86.72) scale(0.08 -0.08)">
     <defs>
      <path id="DejaVuSans-Oblique-44" d="M 1081 4666 
L 2438 4666 
Q 3519 4666 4070 4208 
Q 4622 3750 4622 2847 
Q 4622 2250 4412 1698 
Q 4203 1147 3834 769 
Q 3463 381 2891 190 
Q 2319 0 1538 0 
L 172 0 
L 1081 4666 
z
M 1613 4147 
L 909 519 
L 1734 519 
Q 2794 519 3375 1128 
Q 3956 1738 3956 2847 
Q 3956 3519 3581 3833 
Q 3206 4147 2406 4147 
L 1613 4147 
z
" transform="scale(0.015625)"/>
      <path id="DejaVuSans-Oblique-70" d="M 3175 2156 
Q 3175 2616 2975 2859 
Q 2775 3103 2400 3103 
Q 2144 3103 1911 2972 
Q 1678 2841 1497 2591 
Q 1319 2344 1212 1994 
Q 1106 1644 1106 1300 
Q 1106 863 1306 627 
Q 1506 391 1875 391 
Q 2147 391 2380 519 
Q 2613 647 2778 891 
Q 2956 1147 3065 1494 
Q 3175 1841 3175 2156 
z
M 1394 2969 
Q 1625 3272 1939 3428 
Q 2253 3584 2638 3584 
Q 3175 3584 3472 3232 
Q 3769 2881 3769 2247 
Q 3769 1728 3584 1258 
Q 3400 788 3053 416 
Q 2822 169 2531 39 
Q 2241 -91 1919 -91 
Q 1547 -91 1294 64 
Q 1041 219 916 525 
L 556 -1331 
L -19 -1331 
L 922 3500 
L 1497 3500 
L 1394 2969 
z
" transform="scale(0.015625)"/>
      <path id="DejaVuSans-Oblique-72" d="M 2853 2969 
Q 2766 3016 2653 3041 
Q 2541 3066 2413 3066 
Q 1953 3066 1609 2717 
Q 1266 2369 1153 1784 
L 800 0 
L 225 0 
L 909 3500 
L 1484 3500 
L 1375 2956 
Q 1603 3259 1920 3421 
Q 2238 3584 2597 3584 
Q 2691 3584 2781 3573 
Q 2872 3563 2963 3538 
L 2853 2969 
z
" transform="scale(0.015625)"/>
      <path id="DejaVuSans-Oblique-6f" d="M 1625 -91 
Q 1009 -91 651 289 
Q 294 669 294 1325 
Q 294 1706 417 2101 
Q 541 2497 738 2766 
Q 1047 3184 1428 3384 
Q 1809 3584 2291 3584 
Q 2888 3584 3255 3212 
Q 3622 2841 3622 2241 
Q 3622 1825 3500 1412 
Q 3378 1000 3181 728 
Q 2875 309 2494 109 
Q 2113 -91 1625 -91 
z
M 891 1344 
Q 891 869 1089 633 
Q 1288 397 1691 397 
Q 2269 397 2648 901 
Q 3028 1406 3028 2181 
Q 3028 2634 2825 2865 
Q 2622 3097 2228 3097 
Q 1903 3097 1650 2945 
Q 1397 2794 1197 2484 
Q 1050 2253 970 1956 
Q 891 1659 891 1344 
z
" transform="scale(0.015625)"/>
      <path id="DejaVuSans-Oblique-74" d="M 2706 3500 
L 2619 3053 
L 1472 3053 
L 1100 1153 
Q 1081 1047 1072 975 
Q 1063 903 1063 863 
Q 1063 663 1183 572 
Q 1303 481 1569 481 
L 2150 481 
L 2053 0 
L 1503 0 
Q 991 0 739 200 
Q 488 400 488 806 
Q 488 878 497 964 
Q 506 1050 525 1153 
L 897 3053 
L 409 3053 
L 500 3500 
L 978 3500 
L 1172 4494 
L 1747 4494 
L 1556 3500 
L 2706 3500 
z
" transform="scale(0.015625)"/>
     </defs>
     <use xlink:href="#DejaVuSans-Oblique-44" transform="translate(0 0.09375)"/>
     <use xlink:href="#DejaVuSans-Oblique-70" transform="translate(77.001953 -16.3125) scale(0.7)"/>
     <use xlink:href="#DejaVuSans-Oblique-72" transform="translate(121.435547 -16.3125) scale(0.7)"/>
     <use xlink:href="#DejaVuSans-Oblique-6f" transform="translate(150.214844 -16.3125) scale(0.7)"/>
     <use xlink:href="#DejaVuSans-Oblique-74" transform="translate(193.041992 -16.3125) scale(0.7)"/>
    </g>
    <!-- 1N5817 -->
    <g transform="translate(136.966875 95.27875) scale(0.08 -0.08)">
     <defs>
      <path id="DejaVuSans-31" d="M 794 531 
L 1825 531 
L 1825 4091 
L 703 3866 
L 703 4441 
L 1819 4666 
L 2450 4666 
L 2450 531 
L 3481 531 
L 3481 0 
L 794 0 
L 794 531 
z
" transform="scale(0.015625)"/>
      <path id="DejaVuSans-35" d="M 691 4666 
L 3169 4666 
L 3169 4134 
L 1269 4134 
L 1269 2991 
Q 1406 3038 1543 3061 
Q 1681 3084 1819 3084 
Q 2600 3084 3056 2656 
Q 3513 2228 3513 1497 
Q 3513 744 3044 326 
Q 2575 -91 1722 -91 
Q 1428 -91 1123 -41 
Q 819 9 494 109 
L 494 744 
Q 775 591 1075 516 
Q 1375 441 1709 441 
Q 2250 441 2565 725 
Q 2881 1009 2881 1497 
Q 2881 1984 2565 2268 
Q 2250 2553 1709 2553 
Q 1456 2553 1204 2497 
Q 953 2441 691 2322 
L 691 4666 
z
" transform="scale(0.015625)"/>
      <path id="DejaVuSans-38" d="M 2034 2216 
Q 1584 2216 1326 1975 
Q 1069 1734 1069 1313 
Q 1069 891 1326 650 
Q 1584 409 2034 409 
Q 2484 409 2743 651 
Q 3003 894 3003 1313 
Q 3003 1734 2745 1975 
Q 2488 2216 2034 2216 
z
M 1403 2484 
Q 997 2584 770 2862 
Q 544 3141 544 3541 
Q 544 4100 942 4425 
Q 1341 4750 2034 4750 
Q 2731 4750 3128 4425 
Q 3525 4100 3525 3541 
Q 3525 3141 3298 2862 
Q 3072 2584 2669 2484 
Q 3125 2378 3379 2068 
Q 3634 1759 3634 1313 
Q 3634 634 3220 271 
Q 2806 -91 2034 -91 
Q 1263 -91 848 271 
Q 434 634 434 1313 
Q 434 1759 690 2068 
Q 947 2378 1403 2484 
z
M 1172 3481 
Q 1172 3119 1398 2916 
Q 1625 2713 2034 2713 
Q 2441 2713 2670 2916 
Q 2900 3119 2900 3481 
Q 2900 3844 2670 4047 
Q 2441 4250 2034 4250 
Q 1625 4250 1398 4047 
Q 1172 3844 1172 3481 
z
" transform="scale(0.015625)"/>
      <path id="DejaVuSans-37" d="M 525 4666 
L 3525 4666 
L 3525 4397 
L 1831 0 
L 1172 0 
L 2766 4134 
L 525 4134 
L 525 4666 
z
" transform="scale(0.015625)"/>
     </defs>
     <use xlink:href="#DejaVuSans-31"/>
     <use xlink:href="#DejaVuSans-4e" transform="translate(63.623047 0)"/>
     <use xlink:href="#DejaVuSans-35" transform="translate(138.427734 0)"/>
     <use xlink:href="#DejaVuSans-38" transform="translate(202.050781 0)"/>
     <use xlink:href="#DejaVuSans-31" transform="translate(265.673828 0)"/>
     <use xlink:href="#DejaVuSans-37" transform="translate(329.296875 0)"/>
    </g>
   </g>
   <g id="text_3">
    <!-- + -->
    <g transform="translate(227.098594 106.127125) scale(0.14 -0.14)">
     <defs>
      <path id="DejaVuSans-2b" d="M 2944 4013 
L 2944 2272 
L 4684 2272 
L 4684 1741 
L 2944 1741 
L 2944 0 
L 2419 0 
L 2419 1741 
L 678 1741 
L 678 2272 
L 2419 2272 
L 2419 4013 
L 2944 4013 
z
" transform="scale(0.015625)"/>
     </defs>
     <use xlink:href="#DejaVuSans-2b"/>
    </g>
   </g>
   <g id="text_4">
    <!-- $C_{in1}$ -->
    <g transform="translate(239.084375 111.61625) scale(0.08 -0.08)">
     <defs>
      <path id="DejaVuSans-Oblique-43" d="M 4447 4306 
L 4319 3641 
Q 4019 3944 3683 4091 
Q 3347 4238 2956 4238 
Q 2422 4238 2017 3981 
Q 1613 3725 1319 3200 
Q 1131 2863 1032 2486 
Q 934 2109 934 1728 
Q 934 1091 1264 756 
Q 1594 422 2222 422 
Q 2656 422 3056 561 
Q 3456 700 3834 978 
L 3688 231 
Q 3316 72 2936 -9 
Q 2556 -91 2175 -91 
Q 1278 -91 773 396 
Q 269 884 269 1753 
Q 269 2309 461 2846 
Q 653 3384 1013 3828 
Q 1394 4300 1883 4525 
Q 2372 4750 3022 4750 
Q 3422 4750 3780 4639 
Q 4138 4528 4447 4306 
z
" transform="scale(0.015625)"/>
      <path id="DejaVuSans-Oblique-69" d="M 1172 4863 
L 1747 4863 
L 1606 4134 
L 1031 4134 
L 1172 4863 
z
M 909 3500 
L 1484 3500 
L 800 0 
L 225 0 
L 909 3500 
z
" transform="scale(0.015625)"/>
      <path id="DejaVuSans-Oblique-6e" d="M 3566 2113 
L 3156 0 
L 2578 0 
L 2988 2091 
Q 3016 2238 3031 2350 
Q 3047 2463 3047 2528 
Q 3047 2791 2881 2937 
Q 2716 3084 2419 3084 
Q 1956 3084 1622 2776 
Q 1288 2469 1184 1941 
L 800 0 
L 225 0 
L 903 3500 
L 1478 3500 
L 1363 2950 
Q 1603 3253 1940 3418 
Q 2278 3584 2650 3584 
Q 3113 3584 3367 3334 
Q 3622 3084 3622 2631 
Q 3622 2519 3608 2391 
Q 3594 2263 3566 2113 
z
" transform="scale(0.015625)"/>
     </defs>
     <use xlink:href="#DejaVuSans-Oblique-43" transform="translate(0 0.78125)"/>
     <use xlink:href="#DejaVuSans-Oblique-69" transform="translate(69.824219 -15.625) scale(0.7)"/>
     <use xlink:href="#DejaVuSans-Oblique-6e" transform="translate(89.272461 -15.625) scale(0.7)"/>
     <use xlink:href="#DejaVuSans-31" transform="translate(133.637695 -15.625) scale(0.7)"/>
    </g>
    <!-- 100µF -->
    <g transform="translate(239.084375 119.35875) scale(0.08 -0.08)">
     <defs>
      <path id="DejaVuSans-30" d="M 2034 4250 
Q 1547 4250 1301 3770 
Q 1056 3291 1056 2328 
Q 1056 1369 1301 889 
Q 1547 409 2034 409 
Q 2525 409 2770 889 
Q 3016 1369 3016 2328 
Q 3016 3291 2770 3770 
Q 2525 4250 2034 4250 
z
M 2034 4750 
Q 2819 4750 3233 4129 
Q 3647 3509 3647 2328 
Q 3647 1150 3233 529 
Q 2819 -91 2034 -91 
Q 1250 -91 836 529 
Q 422 1150 422 2328 
Q 422 3509 836 4129 
Q 1250 4750 2034 4750 
z
" transform="scale(0.015625)"/>
      <path id="DejaVuSans-b5" d="M 544 -1331 
L 544 3500 
L 1119 3500 
L 1119 1325 
Q 1119 872 1334 640 
Q 1550 409 1972 409 
Q 2434 409 2667 671 
Q 2900 934 2900 1459 
L 2900 3500 
L 3475 3500 
L 3475 806 
Q 3475 619 3529 530 
Q 3584 441 3700 441 
Q 3728 441 3778 458 
Q 3828 475 3916 513 
L 3916 50 
Q 3788 -22 3673 -56 
Q 3559 -91 3450 -91 
Q 3234 -91 3106 31 
Q 2978 153 2931 403 
Q 2775 156 2548 32 
Q 2322 -91 2016 -91 
Q 1697 -91 1473 31 
Q 1250 153 1119 397 
L 1119 -1331 
L 544 -1331 
z
" transform="scale(0.015625)"/>
      <path id="DejaVuSans-46" d="M 628 4666 
L 3309 4666 
L 3309 4134 
L 1259 4134 
L 1259 2759 
L 3109 2759 
L 3109 2228 
L 1259 2228 
L 1259 0 
L 628 0 
L 628 4666 
z
" transform="scale(0.015625)"/>
     </defs>
     <use xlink:href="#DejaVuSans-31"/>
     <use xlink:href="#DejaVuSans-30" transform="translate(63.623047 0)"/>
     <use xlink:href="#DejaVuSans-30" transform="translate(127.246094 0)"/>
     <use xlink:href="#DejaVuSans-b5" transform="translate(190.869141 0)"/>
     <use xlink:href="#DejaVuSans-46" transform="translate(254.492188 0)"/>
    </g>
   </g>
   <g id="text_5">
    <!-- $C_{in2}$ -->
    <g transform="translate(303.884375 111.61625) scale(0.08 -0.08)">
     <defs>
      <path id="DejaVuSans-32" d="M 1228 531 
L 3431 531 
L 3431 0 
L 469 0 
L 469 531 
Q 828 903 1448 1529 
Q 2069 2156 2228 2338 
Q 2531 2678 2651 2914 
Q 2772 3150 2772 3378 
Q 2772 3750 2511 3984 
Q 2250 4219 1831 4219 
Q 1534 4219 1204 4116 
Q 875 4013 500 3803 
L 500 4441 
Q 881 4594 1212 4672 
Q 1544 4750 1819 4750 
Q 2544 4750 2975 4387 
Q 3406 4025 3406 3419 
Q 3406 3131 3298 2873 
Q 3191 2616 2906 2266 
Q 2828 2175 2409 1742 
Q 1991 1309 1228 531 
z
" transform="scale(0.015625)"/>
     </defs>
     <use xlink:href="#DejaVuSans-Oblique-43" transform="translate(0 0.78125)"/>
     <use xlink:href="#DejaVuSans-Oblique-69" transform="translate(69.824219 -15.625) scale(0.7)"/>
     <use xlink:href="#DejaVuSans-Oblique-6e" transform="translate(89.272461 -15.625) scale(0.7)"/>
     <use xlink:href="#DejaVuSans-32" transform="translate(133.637695 -15.625) scale(0.7)"/>
    </g>
    <!-- 100nF -->
    <g transform="translate(303.884375 119.35875) scale(0.08 -0.08)">
     <use xlink:href="#DejaVuSans-31"/>
     <use xlink:href="#DejaVuSans-30" transform="translate(63.623047 0)"/>
     <use xlink:href="#DejaVuSans-30" transform="translate(127.246094 0)"/>
     <use xlink:href="#DejaVuSans-6e" transform="translate(190.869141 0)"/>
     <use xlink:href="#DejaVuSans-46" transform="translate(254.248047 0)"/>
    </g>
   </g>
   <g id="text_6">
    <!-- in -->
    <g transform="translate(343.484375 72.143125) scale(0.14 -0.14)">
     <use xlink:href="#DejaVuSans-69"/>
     <use xlink:href="#DejaVuSans-6e" transform="translate(27.783203 0)"/>
    </g>
   </g>
   <g id="text_7">
    <!-- out -->
    <g transform="translate(381.757187 72.143125) scale(0.14 -0.14)">
     <use xlink:href="#DejaVuSans-6f"/>
     <use xlink:href="#DejaVuSans-75" transform="translate(61.181641 0)"/>
     <use xlink:href="#DejaVuSans-74" transform="translate(124.560547 0)"/>
    </g>
   </g>
   <g id="text_8">
    <!-- gnd -->
    <g transform="translate(360.760312 95.968437) scale(0.14 -0.14)">
     <defs>
      <path id="DejaVuSans-64" d="M 2906 2969 
L 2906 4863 
L 3481 4863 
L 3481 0 
L 2906 0 
L 2906 525 
Q 2725 213 2448 61 
Q 2172 -91 1784 -91 
Q 1150 -91 751 415 
Q 353 922 353 1747 
Q 353 2572 751 3078 
Q 1150 3584 1784 3584 
Q 2172 3584 2448 3432 
Q 2725 3281 2906 2969 
z
M 947 1747 
Q 947 1113 1208 752 
Q 1469 391 1925 391 
Q 2381 391 2643 752 
Q 2906 1113 2906 1747 
Q 2906 2381 2643 2742 
Q 2381 3103 1925 3103 
Q 1469 3103 1208 2742 
Q 947 2381 947 1747 
z
" transform="scale(0.015625)"/>
     </defs>
     <use xlink:href="#DejaVuSans-67"/>
     <use xlink:href="#DejaVuSans-6e" transform="translate(63.476562 0)"/>
     <use xlink:href="#DejaVuSans-64" transform="translate(126.855469 0)"/>
    </g>
   </g>
   <g id="text_9">
    <!-- L7809 -->
    <g transform="translate(360.124531 36.097969) scale(0.09 -0.09)">
     <defs>
      <path id="DejaVuSans-4c" d="M 628 4666 
L 1259 4666 
L 1259 531 
L 3531 531 
L 3531 0 
L 628 0 
L 628 4666 
z
" transform="scale(0.015625)"/>
     </defs>
     <use xlink:href="#DejaVuSans-4c"/>
     <use xlink:href="#DejaVuSans-37" transform="translate(55.712891 0)"/>
     <use xlink:href="#DejaVuSans-38" transform="translate(119.335938 0)"/>
     <use xlink:href="#DejaVuSans-30" transform="translate(182.958984 0)"/>
     <use xlink:href="#DejaVuSans-39" transform="translate(246.582031 0)"/>
    </g>
    <!-- (+9V Reg) -->
    <g transform="translate(350.880547 44.808281) scale(0.09 -0.09)">
     <defs>
      <path id="DejaVuSans-28" d="M 1984 4856 
Q 1566 4138 1362 3434 
Q 1159 2731 1159 2009 
Q 1159 1288 1364 580 
Q 1569 -128 1984 -844 
L 1484 -844 
Q 1016 -109 783 600 
Q 550 1309 550 2009 
Q 550 2706 781 3412 
Q 1013 4119 1484 4856 
L 1984 4856 
z
" transform="scale(0.015625)"/>
      <path id="DejaVuSans-52" d="M 2841 2188 
Q 3044 2119 3236 1894 
Q 3428 1669 3622 1275 
L 4263 0 
L 3584 0 
L 2988 1197 
Q 2756 1666 2539 1819 
Q 2322 1972 1947 1972 
L 1259 1972 
L 1259 0 
L 628 0 
L 628 4666 
L 2053 4666 
Q 2853 4666 3247 4331 
Q 3641 3997 3641 3322 
Q 3641 2881 3436 2590 
Q 3231 2300 2841 2188 
z
M 1259 4147 
L 1259 2491 
L 2053 2491 
Q 2509 2491 2742 2702 
Q 2975 2913 2975 3322 
Q 2975 3731 2742 3939 
Q 2509 4147 2053 4147 
L 1259 4147 
z
" transform="scale(0.015625)"/>
      <path id="DejaVuSans-29" d="M 513 4856 
L 1013 4856 
Q 1481 4119 1714 3412 
Q 1947 2706 1947 2009 
Q 1947 1309 1714 600 
Q 1481 -109 1013 -844 
L 513 -844 
Q 928 -128 1133 580 
Q 1338 1288 1338 2009 
Q 1338 2731 1133 3434 
Q 928 4138 513 4856 
z
" transform="scale(0.015625)"/>
     </defs>
     <use xlink:href="#DejaVuSans-28"/>
     <use xlink:href="#DejaVuSans-2b" transform="translate(39.013672 0)"/>
     <use xlink:href="#DejaVuSans-39" transform="translate(122.802734 0)"/>
     <use xlink:href="#DejaVuSans-56" transform="translate(186.425781 0)"/>
     <use xlink:href="#DejaVuSans-20" transform="translate(254.833984 0)"/>
     <use xlink:href="#DejaVuSans-52" transform="translate(286.621094 0)"/>
     <use xlink:href="#DejaVuSans-65" transform="translate(351.603516 0)"/>
     <use xlink:href="#DejaVuSans-67" transform="translate(413.126953 0)"/>
     <use xlink:href="#DejaVuSans-29" transform="translate(476.603516 0)"/>
    </g>
   </g>
   <g id="text_10">
    <!-- + -->
    <g transform="translate(457.498594 106.127125) scale(0.14 -0.14)">
     <use xlink:href="#DejaVuSans-2b"/>
    </g>
   </g>
   <g id="text_11">
    <!-- $C_{out1}$ -->
    <g transform="translate(469.484375 111.61625) scale(0.08 -0.08)">
     <defs>
      <path id="DejaVuSans-Oblique-75" d="M 428 1388 
L 838 3500 
L 1416 3500 
L 1006 1409 
Q 975 1256 961 1147 
Q 947 1038 947 966 
Q 947 700 1109 554 
Q 1272 409 1569 409 
Q 2031 409 2368 721 
Q 2706 1034 2809 1563 
L 3194 3500 
L 3769 3500 
L 3091 0 
L 2516 0 
L 2631 550 
Q 2388 244 2052 76 
Q 1716 -91 1338 -91 
Q 878 -91 622 161 
Q 366 413 366 863 
Q 366 956 381 1097 
Q 397 1238 428 1388 
z
" transform="scale(0.015625)"/>
     </defs>
     <use xlink:href="#DejaVuSans-Oblique-43" transform="translate(0 0.78125)"/>
     <use xlink:href="#DejaVuSans-Oblique-6f" transform="translate(69.824219 -15.625) scale(0.7)"/>
     <use xlink:href="#DejaVuSans-Oblique-75" transform="translate(112.651367 -15.625) scale(0.7)"/>
     <use xlink:href="#DejaVuSans-Oblique-74" transform="translate(157.016602 -15.625) scale(0.7)"/>
     <use xlink:href="#DejaVuSans-31" transform="translate(184.462891 -15.625) scale(0.7)"/>
    </g>
    <!-- 10µF -->
    <g transform="translate(469.484375 119.35875) scale(0.08 -0.08)">
     <use xlink:href="#DejaVuSans-31"/>
     <use xlink:href="#DejaVuSans-30" transform="translate(63.623047 0)"/>
     <use xlink:href="#DejaVuSans-b5" transform="translate(127.246094 0)"/>
     <use xlink:href="#DejaVuSans-46" transform="translate(190.869141 0)"/>
    </g>
   </g>
   <g id="text_12">
    <!-- $C_{out2}$ -->
    <g transform="translate(534.284375 111.61625) scale(0.08 -0.08)">
     <use xlink:href="#DejaVuSans-Oblique-43" transform="translate(0 0.78125)"/>
     <use xlink:href="#DejaVuSans-Oblique-6f" transform="translate(69.824219 -15.625) scale(0.7)"/>
     <use xlink:href="#DejaVuSans-Oblique-75" transform="translate(112.651367 -15.625) scale(0.7)"/>
     <use xlink:href="#DejaVuSans-Oblique-74" transform="translate(157.016602 -15.625) scale(0.7)"/>
     <use xlink:href="#DejaVuSans-32" transform="translate(184.462891 -15.625) scale(0.7)"/>
    </g>
    <!-- 100nF -->
    <g transform="translate(534.284375 119.35875) scale(0.08 -0.08)">
     <use xlink:href="#DejaVuSans-31"/>
     <use xlink:href="#DejaVuSans-30" transform="translate(63.623047 0)"/>
     <use xlink:href="#DejaVuSans-30" transform="translate(127.246094 0)"/>
     <use xlink:href="#DejaVuSans-6e" transform="translate(190.869141 0)"/>
     <use xlink:href="#DejaVuSans-46" transform="translate(254.248047 0)"/>
    </g>
   </g>
   <g id="patch_3">
    <path d="M 78.884375 70.98 
C 79.600423 70.98 80.287241 70.695511 80.793563 70.189188 
C 81.299886 69.682866 81.584375 68.996048 81.584375 68.28 
C 81.584375 67.563952 81.299886 66.877134 80.793563 66.370812 
C 80.287241 65.864489 79.600423 65.58 78.884375 65.58 
C 78.168327 65.58 77.481509 65.864489 76.975187 66.370812 
C 76.468864 66.877134 76.184375 67.563952 76.184375 68.28 
C 76.184375 68.996048 76.468864 69.682866 76.975187 70.189188 
C 77.481509 70.695511 78.168327 70.98 78.884375 70.98 
z
" clip-path="url(#p974335e411)" style="fill: #ffffff; stroke: #000000; stroke-width: 2; stroke-linejoin: miter"/>
   </g>
   <g id="text_13">
    <!-- Center (+12V) -->
    <g transform="translate(0 71.039375) scale(0.1 -0.1)">
     <use xlink:href="#DejaVuSans-43"/>
     <use xlink:href="#DejaVuSans-65" transform="translate(69.824219 0)"/>
     <use xlink:href="#DejaVuSans-6e" transform="translate(131.347656 0)"/>
     <use xlink:href="#DejaVuSans-74" transform="translate(194.726562 0)"/>
     <use xlink:href="#DejaVuSans-65" transform="translate(233.935547 0)"/>
     <use xlink:href="#DejaVuSans-72" transform="translate(295.458984 0)"/>
     <use xlink:href="#DejaVuSans-20" transform="translate(336.572266 0)"/>
     <use xlink:href="#DejaVuSans-28" transform="translate(368.359375 0)"/>
     <use xlink:href="#DejaVuSans-2b" transform="translate(407.373047 0)"/>
     <use xlink:href="#DejaVuSans-31" transform="translate(491.162109 0)"/>
     <use xlink:href="#DejaVuSans-32" transform="translate(554.785156 0)"/>
     <use xlink:href="#DejaVuSans-56" transform="translate(618.408203 0)"/>
     <use xlink:href="#DejaVuSans-29" transform="translate(686.816406 0)"/>
    </g>
   </g>
   <g id="patch_4">
    <path d="M 78.884375 160.98 
C 79.600423 160.98 80.287241 160.695511 80.793563 160.189188 
C 81.299886 159.682866 81.584375 158.996048 81.584375 158.28 
C 81.584375 157.563952 81.299886 156.877134 80.793563 156.370812 
C 80.287241 155.864489 79.600423 155.58 78.884375 155.58 
C 78.168327 155.58 77.481509 155.864489 76.975187 156.370812 
C 76.468864 156.877134 76.184375 157.563952 76.184375 158.28 
C 76.184375 158.996048 76.468864 159.682866 76.975187 160.189188 
C 77.481509 160.695511 78.168327 160.98 78.884375 160.98 
z
" clip-path="url(#p974335e411)" style="fill: #ffffff; stroke: #000000; stroke-width: 2; stroke-linejoin: miter"/>
   </g>
   <g id="text_14">
    <!-- Sleeve (GND) -->
    <g transform="translate(5.16875 161.039375) scale(0.1 -0.1)">
     <defs>
      <path id="DejaVuSans-47" d="M 3809 666 
L 3809 1919 
L 2778 1919 
L 2778 2438 
L 4434 2438 
L 4434 434 
Q 4069 175 3628 42 
Q 3188 -91 2688 -91 
Q 1594 -91 976 548 
Q 359 1188 359 2328 
Q 359 3472 976 4111 
Q 1594 4750 2688 4750 
Q 3144 4750 3555 4637 
Q 3966 4525 4313 4306 
L 4313 3634 
Q 3963 3931 3569 4081 
Q 3175 4231 2741 4231 
Q 1884 4231 1454 3753 
Q 1025 3275 1025 2328 
Q 1025 1384 1454 906 
Q 1884 428 2741 428 
Q 3075 428 3337 486 
Q 3600 544 3809 666 
z
" transform="scale(0.015625)"/>
      <path id="DejaVuSans-44" d="M 1259 4147 
L 1259 519 
L 2022 519 
Q 2988 519 3436 956 
Q 3884 1394 3884 2338 
Q 3884 3275 3436 3711 
Q 2988 4147 2022 4147 
L 1259 4147 
z
M 628 4666 
L 1925 4666 
Q 3281 4666 3915 4102 
Q 4550 3538 4550 2338 
Q 4550 1131 3912 565 
Q 3275 0 1925 0 
L 628 0 
L 628 4666 
z
" transform="scale(0.015625)"/>
     </defs>
     <use xlink:href="#DejaVuSans-53"/>
     <use xlink:href="#DejaVuSans-6c" transform="translate(63.476562 0)"/>
     <use xlink:href="#DejaVuSans-65" transform="translate(91.259766 0)"/>
     <use xlink:href="#DejaVuSans-65" transform="translate(152.783203 0)"/>
     <use xlink:href="#DejaVuSans-76" transform="translate(214.306641 0)"/>
     <use xlink:href="#DejaVuSans-65" transform="translate(273.486328 0)"/>
     <use xlink:href="#DejaVuSans-20" transform="translate(335.009766 0)"/>
     <use xlink:href="#DejaVuSans-28" transform="translate(366.796875 0)"/>
     <use xlink:href="#DejaVuSans-47" transform="translate(405.810547 0)"/>
     <use xlink:href="#DejaVuSans-4e" transform="translate(483.300781 0)"/>
     <use xlink:href="#DejaVuSans-44" transform="translate(558.105469 0)"/>
     <use xlink:href="#DejaVuSans-29" transform="translate(635.107422 0)"/>
    </g>
   </g>
   <g id="patch_5">
    <path d="M 550.484375 70.98 
C 551.200423 70.98 551.887241 70.695511 552.393563 70.189188 
C 552.899886 69.682866 553.184375 68.996048 553.184375 68.28 
C 553.184375 67.563952 552.899886 66.877134 552.393563 66.370812 
C 551.887241 65.864489 551.200423 65.58 550.484375 65.58 
C 549.768327 65.58 549.081509 65.864489 548.575187 66.370812 
C 548.068864 66.877134 547.784375 67.563952 547.784375 68.28 
C 547.784375 68.996048 548.068864 69.682866 548.575187 70.189188 
C 549.081509 70.695511 549.768327 70.98 550.484375 70.98 
z
" clip-path="url(#p974335e411)" style="fill: #ffffff; stroke: #000000; stroke-width: 2; stroke-linejoin: miter"/>
   </g>
   <g id="text_15">
    <!-- Sleeve (+9V) -->
    <g transform="translate(556.784375 71.039375) scale(0.1 -0.1)">
     <use xlink:href="#DejaVuSans-53"/>
     <use xlink:href="#DejaVuSans-6c" transform="translate(63.476562 0)"/>
     <use xlink:href="#DejaVuSans-65" transform="translate(91.259766 0)"/>
     <use xlink:href="#DejaVuSans-65" transform="translate(152.783203 0)"/>
     <use xlink:href="#DejaVuSans-76" transform="translate(214.306641 0)"/>
     <use xlink:href="#DejaVuSans-65" transform="translate(273.486328 0)"/>
     <use xlink:href="#DejaVuSans-20" transform="translate(335.009766 0)"/>
     <use xlink:href="#DejaVuSans-28" transform="translate(366.796875 0)"/>
     <use xlink:href="#DejaVuSans-2b" transform="translate(405.810547 0)"/>
     <use xlink:href="#DejaVuSans-39" transform="translate(489.599609 0)"/>
     <use xlink:href="#DejaVuSans-56" transform="translate(553.222656 0)"/>
     <use xlink:href="#DejaVuSans-29" transform="translate(621.630859 0)"/>
    </g>
   </g>
   <g id="patch_6">
    <path d="M 550.484375 160.98 
C 551.200423 160.98 551.887241 160.695511 552.393563 160.189188 
C 552.899886 159.682866 553.184375 158.996048 553.184375 158.28 
C 553.184375 157.563952 552.899886 156.877134 552.393563 156.370812 
C 551.887241 155.864489 551.200423 155.58 550.484375 155.58 
C 549.768327 155.58 549.081509 155.864489 548.575187 156.370812 
C 548.068864 156.877134 547.784375 157.563952 547.784375 158.28 
C 547.784375 158.996048 548.068864 159.682866 548.575187 160.189188 
C 549.081509 160.695511 549.768327 160.98 550.484375 160.98 
z
" clip-path="url(#p974335e411)" style="fill: #ffffff; stroke: #000000; stroke-width: 2; stroke-linejoin: miter"/>
   </g>
   <g id="text_16">
    <!-- Center (GND) -->
    <g transform="translate(556.784375 161.039375) scale(0.1 -0.1)">
     <use xlink:href="#DejaVuSans-43"/>
     <use xlink:href="#DejaVuSans-65" transform="translate(69.824219 0)"/>
     <use xlink:href="#DejaVuSans-6e" transform="translate(131.347656 0)"/>
     <use xlink:href="#DejaVuSans-74" transform="translate(194.726562 0)"/>
     <use xlink:href="#DejaVuSans-65" transform="translate(233.935547 0)"/>
     <use xlink:href="#DejaVuSans-72" transform="translate(295.458984 0)"/>
     <use xlink:href="#DejaVuSans-20" transform="translate(336.572266 0)"/>
     <use xlink:href="#DejaVuSans-28" transform="translate(368.359375 0)"/>
     <use xlink:href="#DejaVuSans-47" transform="translate(407.373047 0)"/>
     <use xlink:href="#DejaVuSans-4e" transform="translate(484.863281 0)"/>
     <use xlink:href="#DejaVuSans-44" transform="translate(559.667969 0)"/>
     <use xlink:href="#DejaVuSans-29" transform="translate(636.669922 0)"/>
    </g>
   </g>
  </g>
 </g>
 <defs>
  <clipPath id="p974335e411">
   <rect x="4.244375" y="-0" width="618.9" height="186"/>
  </clipPath>
 </defs>
</svg>
